<?xml version="1.0" standalone="no"?><!DOCTYPE svg PUBLIC "-//W3C//DTD SVG 1.1//EN" "http://www.w3.org/Graphics/SVG/1.1/DTD/svg11.dtd"><svg width="3684pt" height="1214pt" viewBox="0.00 0.00 3683.76 1214.00" xmlns:xlink="http://www.w3.org/1999/xlink" version="1.1" xmlns="http://www.w3.org/2000/svg"><defs xmlns="http://www.w3.org/1999/xhtml"><style type="text/css"><![CDATA[
button { margin: 4px 5px 4px 4px; cursor: pointer; font-size: 70%; }]]></style></defs>
<g id="graph1" class="graph" transform="scale(1 1) rotate(0) translate(4 1210)">
<title>G</title>
<polygon fill="white" stroke="white" points="-4,5 -4,-1210 3680.76,-1210 3680.76,5 -4,5"/>
<!-- 11 -->
<g id="node1" class="node"><title>11</title>
<ellipse fill="red" stroke="black" cx="1478" cy="-1098" rx="27" ry="18"/>
<text text-anchor="middle" x="1478" y="-1093.8" font-family="Times,serif" font-size="14.00" fill="white">RQ</text>
</g>
<!-- 11&#45;&gt;11 -->
<g id="edge2" class="edge"><title>11-&gt;11</title>
<path fill="none" stroke="black" stroke-width="0.5" d="M1502.53,-1106.12C1513.51,-1106.89 1523,-1104.19 1523,-1098 1523,-1093.84 1518.72,-1091.26 1512.57,-1090.24"/>
<polygon fill="black" stroke="black" points="1512.65,-1086.74 1502.53,-1089.88 1512.4,-1093.74 1512.65,-1086.74"/>
<text text-anchor="middle" x="1535.25" y="-1093.8" font-family="Times,serif" font-size="14.00">0.05</text>
</g>
<!-- 10 -->
<g id="node2" class="node"><title>10</title>
<ellipse fill="orange" stroke="black" cx="1553" cy="-1008" rx="27" ry="18"/>
<text text-anchor="middle" x="1553" y="-1003.8" font-family="Times,serif" font-size="14.00">PF</text>
</g>
<!-- 11&#45;&gt;10 -->
<g id="edge4" class="edge"><title>11-&gt;10</title>
<path fill="none" stroke="black" stroke-width="0.2" d="M1482.87,-1079.91C1486.64,-1068.81 1492.73,-1054.51 1501.5,-1044 1507.59,-1036.7 1515.57,-1030.29 1523.43,-1025.02"/>
<polygon fill="black" stroke="black" points="1525.52,-1027.83 1532.13,-1019.56 1521.8,-1021.9 1525.52,-1027.83"/>
<text text-anchor="middle" x="1514.25" y="-1048.8" font-family="Times,serif" font-size="14.00">0.02</text>
</g>
<!-- 12 -->
<g id="node4" class="node"><title>12</title>
<polygon fill="cyan" stroke="black" points="430,-36 343.776,-18 430,-3.55271e-15 516.224,-18 430,-36"/>
<text text-anchor="middle" x="430" y="-13.8" font-family="Times,serif" font-size="14.00">TERMINAL</text>
</g>
<!-- 11&#45;&gt;12 -->
<g id="edge6" class="edge"><title>11-&gt;12</title>
<path fill="none" stroke="black" stroke-width="3.4" d="M1450.96,-1097.01C1282.16,-1096.98 376.316,-1095.24 258,-1062 96.4936,-1016.62 95.7136,-913.151 37,-756 5.82111,-672.548 0,-648.086 0,-559 0,-559 0,-559 0,-107 0,-38.2807 213.45,-22.7114 339.576,-19.5101"/>
<polygon fill="black" stroke="black" points="339.709,-23.008 349.625,-19.2764 339.546,-16.0099 339.709,-23.008"/>
<text text-anchor="middle" x="13.25" y="-553.8" font-family="Times,serif" font-size="14.00">0.34</text>
</g>
<!-- 1 -->
<g id="node5" class="node"><title>1</title>
<ellipse fill="bisque" stroke="black" cx="1859" cy="-108" rx="27" ry="18"/>
<text text-anchor="middle" x="1859" y="-103.8" font-family="Times,serif" font-size="14.00">FD</text>
</g>
<!-- 11&#45;&gt;1 -->
<g id="edge8" class="edge"><title>11-&gt;1</title>
<path fill="none" stroke="black" d="M1504.49,-1093.88C1539.55,-1089.89 1603.32,-1083.12 1658,-1080 1758.52,-1074.26 2466.61,-1087.54 2564,-1062 2670.14,-1034.17 2821.36,-928.754 2880,-846 2909.31,-804.63 2964,-802.056 2964,-559 2964,-559 2964,-559 2964,-197 2964,-152.48 2921.68,-156.657 2879,-144 2778.21,-114.111 2037.34,-138.838 1933,-126 1919.92,-124.39 1905.76,-121.444 1893.37,-118.451"/>
<polygon fill="black" stroke="black" points="1893.99,-114.998 1883.44,-115.955 1892.29,-121.787 1893.99,-114.998"/>
<text text-anchor="middle" x="2972.75" y="-598.8" font-family="Times,serif" font-size="14.00">0.1</text>
</g>
<!-- 0 -->
<g id="node6" class="node"><title>0</title>
<ellipse fill="red" stroke="black" cx="2146" cy="-198" rx="27" ry="18"/>
<text text-anchor="middle" x="2146" y="-193.8" font-family="Times,serif" font-size="14.00" fill="white">CQ</text>
</g>
<!-- 11&#45;&gt;0 -->
<g id="edge10" class="edge"><title>11-&gt;0</title>
<path fill="none" stroke="black" stroke-width="0.3" d="M1504.5,-1094.06C1539.57,-1090.27 1603.35,-1083.72 1658,-1080 1753.2,-1073.51 1993.58,-1081.43 2087,-1062 2091.08,-1061.15 2644.64,-849.437 2647,-846 2726.69,-729.853 2604.55,-303.443 2482,-234 2469.12,-226.704 2267.63,-209.152 2182.99,-202.054"/>
<polygon fill="black" stroke="black" points="2183.05,-198.548 2172.8,-201.203 2182.47,-205.523 2183.05,-198.548"/>
<text text-anchor="middle" x="2681.25" y="-643.8" font-family="Times,serif" font-size="14.00">0.03</text>
</g>
<!-- 3 -->
<g id="node7" class="node"><title>3</title>
<ellipse fill="hotpink" stroke="black" cx="1166" cy="-288" rx="27" ry="18"/>
<text text-anchor="middle" x="1166" y="-283.8" font-family="Times,serif" font-size="14.00">GG</text>
</g>
<!-- 11&#45;&gt;3 -->
<g id="edge12" class="edge"><title>11-&gt;3</title>
<path fill="none" stroke="black" stroke-width="1.1" d="M1450.9,-1096.83C1286.58,-1095.7 426.995,-1088.55 313,-1062 193.48,-1034.17 178.668,-962.794 141,-846 94.299,-701.199 105.624,-647.564 156,-504 183.773,-424.85 202.146,-395.808 278,-360 432.181,-287.216 979.472,-287.138 1128.37,-288.518"/>
<polygon fill="black" stroke="black" points="1128.75,-292.022 1138.78,-288.623 1128.82,-285.022 1128.75,-292.022"/>
<text text-anchor="middle" x="124.25" y="-688.8" font-family="Times,serif" font-size="14.00">0.11</text>
</g>
<!-- 2 -->
<g id="node8" class="node"><title>2</title>
<ellipse fill="red" stroke="black" cx="847" cy="-378" rx="27" ry="18"/>
<text text-anchor="middle" x="847" y="-373.8" font-family="Times,serif" font-size="14.00" fill="white">FQ</text>
</g>
<!-- 11&#45;&gt;2 -->
<g id="edge14" class="edge"><title>11-&gt;2</title>
<path fill="none" stroke="black" stroke-width="0.2" d="M1450.93,-1097.05C1294.98,-1097.22 514.701,-1096.32 414,-1062 407.52,-1059.79 367.915,-1031.62 364,-1026 263.332,-881.616 296.073,-790.196 369,-630 394.77,-573.391 492.381,-443.756 547,-414 591.455,-389.781 739.517,-382.185 809.605,-379.914"/>
<polygon fill="black" stroke="black" points="809.869,-383.408 819.758,-379.605 809.656,-376.411 809.869,-383.408"/>
<text text-anchor="middle" x="343.25" y="-733.8" font-family="Times,serif" font-size="14.00">0.02</text>
</g>
<!-- 5 -->
<g id="node9" class="node"><title>5</title>
<ellipse fill="none" stroke="black" cx="1421" cy="-468" rx="27" ry="18"/>
<text text-anchor="middle" x="1421" y="-463.8" font-family="Times,serif" font-size="14.00">JK</text>
</g>
<!-- 11&#45;&gt;5 -->
<g id="edge16" class="edge"><title>11-&gt;5</title>
<path fill="none" stroke="black" stroke-width="0.2" d="M1503.23,-1091.27C1536.53,-1082.51 1595.13,-1062.8 1631,-1026 1713.21,-941.657 1788.47,-864.426 1713,-774 1684.34,-739.665 1653.15,-777.611 1614,-756 1595,-745.511 1595.79,-735.89 1581,-720 1558.51,-695.832 1542.2,-696.676 1530,-666 1524.09,-651.132 1522.22,-643.982 1530,-630 1537.37,-616.743 1551.63,-625.257 1559,-612 1568.41,-595.078 1562.93,-556.197 1549,-540 1533.05,-521.458 1518.79,-533.1 1497,-522 1486.84,-516.824 1464.62,-501.121 1446.81,-488.142"/>
<polygon fill="black" stroke="black" points="1448.63,-485.137 1438.5,-482.047 1444.49,-490.782 1448.63,-485.137"/>
<text text-anchor="middle" x="1738.25" y="-778.8" font-family="Times,serif" font-size="14.00">0.02</text>
</g>
<!-- 4 -->
<g id="node10" class="node"><title>4</title>
<ellipse fill="red" stroke="black" cx="1800" cy="-558" rx="27" ry="18"/>
<text text-anchor="middle" x="1800" y="-553.8" font-family="Times,serif" font-size="14.00" fill="white">IR</text>
</g>
<!-- 11&#45;&gt;4 -->
<g id="edge18" class="edge"><title>11-&gt;4</title>
<path fill="none" stroke="black" stroke-width="0.5" d="M1504.5,-1094.09C1539.58,-1090.34 1603.36,-1083.83 1658,-1080 1744.99,-1073.9 1966.92,-1088.49 2050,-1062 2193.81,-1016.15 2213.56,-936.849 2256,-792 2300.4,-640.465 2112.07,-639.968 1961,-594 1918.77,-581.151 1868.96,-571.076 1836.05,-565.099"/>
<polygon fill="black" stroke="black" points="1836.44,-561.615 1825.98,-563.304 1835.21,-568.506 1836.44,-561.615"/>
<text text-anchor="middle" x="2263.25" y="-823.8" font-family="Times,serif" font-size="14.00">0.05</text>
</g>
<!-- 7 -->
<g id="node11" class="node"><title>7</title>
<ellipse fill="none" stroke="black" cx="1237" cy="-648" rx="27" ry="18"/>
<text text-anchor="middle" x="1237" y="-643.8" font-family="Times,serif" font-size="14.00">O</text>
</g>
<!-- 11&#45;&gt;7 -->
<g id="edge20" class="edge"><title>11-&gt;7</title>
<path fill="none" stroke="black" stroke-width="0.2" d="M1451.05,-1096.01C1394.45,-1093.49 1265.4,-1085.3 1229,-1062 1132.85,-1000.46 1122.2,-955.526 1090,-846 1085.49,-830.649 1084.21,-824.917 1090,-810 1114.23,-747.54 1175.22,-694.485 1210.56,-667.689"/>
<polygon fill="black" stroke="black" points="1213.02,-670.226 1218.96,-661.452 1208.84,-664.607 1213.02,-670.226"/>
<text text-anchor="middle" x="1113.25" y="-868.8" font-family="Times,serif" font-size="14.00">0.02</text>
</g>
<!-- 6 -->
<g id="node12" class="node"><title>6</title>
<ellipse fill="orange" stroke="black" cx="1503" cy="-738" rx="27" ry="18"/>
<text text-anchor="middle" x="1503" y="-733.8" font-family="Times,serif" font-size="14.00">NF</text>
</g>
<!-- 11&#45;&gt;6 -->
<g id="edge22" class="edge"><title>11-&gt;6</title>
<path fill="none" stroke="black" stroke-width="0.3" d="M1473.65,-1079.93C1469.54,-1062.29 1464,-1033.91 1464,-1009 1464,-1009 1464,-1009 1464,-827 1464,-803.876 1475.39,-780.04 1485.87,-763.017"/>
<polygon fill="black" stroke="black" points="1489.01,-764.604 1491.51,-754.308 1483.13,-760.797 1489.01,-764.604"/>
<text text-anchor="middle" x="1476.25" y="-913.8" font-family="Times,serif" font-size="14.00">0.03</text>
</g>
<!-- 9 -->
<g id="node13" class="node"><title>9</title>
<ellipse fill="green" stroke="black" cx="2006" cy="-828" rx="27" ry="18"/>
<text text-anchor="middle" x="2006" y="-823.8" font-family="Times,serif" font-size="14.00">PA</text>
</g>
<!-- 11&#45;&gt;9 -->
<g id="edge24" class="edge"><title>11-&gt;9</title>
<path fill="none" stroke="black" stroke-width="2" d="M1504.51,-1094.17C1539.59,-1090.51 1603.38,-1084.1 1658,-1080 1729.69,-1074.62 1914.98,-1090.46 1981,-1062 2034.41,-1038.98 2053.02,-1025.43 2076,-972 2094.97,-927.901 2055.98,-877.823 2028.95,-850.174"/>
<polygon fill="black" stroke="black" points="2031.27,-847.543 2021.7,-842.993 2026.34,-852.517 2031.27,-847.543"/>
<text text-anchor="middle" x="2089.75" y="-958.8" font-family="Times,serif" font-size="14.00">0.2</text>
</g>
<!-- 8 -->
<g id="node14" class="node"><title>8</title>
<ellipse fill="red" stroke="black" cx="1018" cy="-918" rx="27" ry="18"/>
<text text-anchor="middle" x="1018" y="-913.8" font-family="Times,serif" font-size="14.00" fill="white">OQ</text>
</g>
<!-- 11&#45;&gt;8 -->
<g id="edge26" class="edge"><title>11-&gt;8</title>
<path fill="none" stroke="black" stroke-width="0.1" d="M1450.99,-1097.35C1368.45,-1098.04 1120.93,-1097.06 1050,-1062 1030.68,-1052.45 1025.24,-1046.12 1017.5,-1026 1007.59,-1000.22 1009.36,-968.298 1012.58,-946.06"/>
<polygon fill="black" stroke="black" points="1016.07,-946.426 1014.24,-935.99 1009.16,-945.29 1016.07,-946.426"/>
<text text-anchor="middle" x="1030.25" y="-1003.8" font-family="Times,serif" font-size="14.00">0.01</text>
</g>
<!-- 10&#45;&gt;11 -->
<g id="edge28" class="edge"><title>10-&gt;11</title>
<path fill="none" stroke="black" stroke-width="0.2" d="M1546.77,-1025.97C1542.16,-1037.02 1535.11,-1051.31 1526,-1062 1520.45,-1068.51 1513.45,-1074.48 1506.53,-1079.57"/>
<polygon fill="black" stroke="black" points="1504.16,-1076.96 1497.92,-1085.53 1508.14,-1082.72 1504.16,-1076.96"/>
<text text-anchor="middle" x="1550.25" y="-1048.8" font-family="Times,serif" font-size="14.00">0.02</text>
</g>
<!-- 10&#45;&gt;10 -->
<g id="edge30" class="edge"><title>10-&gt;10</title>
<path fill="none" stroke="black" stroke-width="0.8" d="M1577.53,-1016.12C1588.51,-1016.89 1598,-1014.19 1598,-1008 1598,-1003.84 1593.72,-1001.26 1587.57,-1000.24"/>
<polygon fill="black" stroke="black" points="1587.65,-996.742 1577.53,-999.879 1587.4,-1003.74 1587.65,-996.742"/>
<text text-anchor="middle" x="1610.25" y="-1003.8" font-family="Times,serif" font-size="14.00">0.08</text>
</g>
<!-- 10&#45;&gt;12 -->
<g id="edge32" class="edge"><title>10-&gt;12</title>
<path fill="none" stroke="black" stroke-width="3.6" d="M1580.21,-1007.12C1673.45,-1007.23 1988.49,-1004.94 2246,-972 2449.56,-945.958 3093,-809.22 3093,-604 3093,-604 3093,-604 3093,-107 3093,6.76105 4662.69,-156.32 2648,-54 2222.99,-32.4151 878.806,-22.0139 519.205,-19.5734"/>
<polygon fill="black" stroke="black" points="519.133,-16.0729 509.109,-19.5052 519.085,-23.0727 519.133,-16.0729"/>
<text text-anchor="middle" x="3105.25" y="-508.8" font-family="Times,serif" font-size="14.00">0.36</text>
</g>
<!-- 10&#45;&gt;1 -->
<g id="edge34" class="edge"><title>10-&gt;1</title>
<path fill="none" stroke="black" stroke-width="0.6" d="M1579.9,-1006.16C1662.53,-1003.43 1919.86,-993.648 2132,-972 2243.68,-960.604 2278.31,-979.017 2382,-936 2406.63,-925.781 2405.4,-910.291 2430,-900 2479.75,-879.188 2502.02,-906.625 2550,-882 2589.71,-861.621 2585.08,-837.8 2620,-810 2629.05,-802.795 2790.16,-710.506 2798,-702 2810.12,-688.845 2811.5,-683.314 2816,-666 2845.16,-553.676 2885.4,-223.653 2801,-144 2783.46,-127.447 1956.93,-128.965 1933,-126 1919.92,-124.379 1905.76,-121.431 1893.37,-118.439"/>
<polygon fill="black" stroke="black" points="1893.99,-114.986 1883.44,-115.944 1892.29,-121.775 1893.99,-114.986"/>
<text text-anchor="middle" x="2851.25" y="-553.8" font-family="Times,serif" font-size="14.00">0.06</text>
</g>
<!-- 10&#45;&gt;0 -->
<g id="edge36" class="edge"><title>10-&gt;0</title>
<path fill="none" stroke="black" stroke-width="0.1" d="M1580.13,-1006.62C1664.9,-1005.17 1923.9,-998.607 2003,-972 2017.02,-967.283 2017.2,-959.329 2031,-954 2166.78,-901.572 2209.96,-920.91 2354,-900 2386.35,-895.304 2473.48,-901.114 2500,-882 2579.3,-824.841 2608.84,-544.279 2583,-450 2579.36,-436.708 2472.5,-241.595 2461,-234 2449.52,-226.419 2263.68,-209.318 2182.95,-202.201"/>
<polygon fill="black" stroke="black" points="2183.01,-198.693 2172.74,-201.305 2182.4,-205.666 2183.01,-198.693"/>
<text text-anchor="middle" x="2603.25" y="-598.8" font-family="Times,serif" font-size="14.00">0.01</text>
</g>
<!-- 10&#45;&gt;3 -->
<g id="edge38" class="edge"><title>10-&gt;3</title>
<path fill="none" stroke="black" stroke-width="2.8" d="M1526.17,-1005.88C1401.67,-1000.64 883.239,-978.616 811,-972 693.074,-961.2 634.816,-1015.44 547,-936 450.515,-848.713 359.66,-460.74 442,-360 458.545,-339.758 473.339,-350.678 498,-342 519.1,-334.575 523.128,-328.685 545,-324 657.375,-299.928 1012.2,-291.689 1128.6,-289.596"/>
<polygon fill="black" stroke="black" points="1128.86,-293.092 1138.79,-289.418 1128.74,-286.093 1128.86,-293.092"/>
<text text-anchor="middle" x="442.25" y="-643.8" font-family="Times,serif" font-size="14.00">0.28</text>
</g>
<!-- 10&#45;&gt;2 -->
<g id="edge40" class="edge"><title>10-&gt;2</title>
<path fill="none" stroke="black" stroke-width="0.2" d="M1525.96,-1005.74C1391.65,-999.357 799.614,-969.496 725,-936 693.164,-921.708 690.739,-908.471 668,-882 565.872,-763.11 539.987,-690.996 582,-540 599.53,-476.995 604.231,-451.227 658,-414 682.155,-397.276 762.495,-387 810.303,-382.214"/>
<polygon fill="black" stroke="black" points="810.651,-385.697 820.267,-381.249 809.976,-378.729 810.651,-385.697"/>
<text text-anchor="middle" x="579.25" y="-688.8" font-family="Times,serif" font-size="14.00">0.02</text>
</g>
<!-- 10&#45;&gt;5 -->
<g id="edge42" class="edge"><title>10-&gt;5</title>
<path fill="none" stroke="black" stroke-width="0.1" d="M1529.59,-998.623C1511.08,-991.849 1484.67,-981.85 1462,-972 1445.23,-964.711 1442.38,-959.673 1425,-954 1382.07,-939.99 1365.02,-956.923 1325,-936 1242.83,-893.036 1246.49,-844.713 1219.5,-756 1203.02,-701.851 1177.23,-681.367 1201,-630 1237.79,-550.506 1336.37,-501.805 1388.17,-480.922"/>
<polygon fill="black" stroke="black" points="1389.54,-484.142 1397.57,-477.23 1386.98,-477.626 1389.54,-484.142"/>
<text text-anchor="middle" x="1232.25" y="-733.8" font-family="Times,serif" font-size="14.00">0.01</text>
</g>
<!-- 10&#45;&gt;4 -->
<g id="edge44" class="edge"><title>10-&gt;4</title>
<path fill="none" stroke="black" stroke-width="0.1" d="M1571.66,-994.858C1602.3,-974.282 1664.07,-930.083 1706,-882 1736.81,-846.669 1744.61,-835.919 1761,-792 1787.56,-720.826 1796.1,-630.667 1798.8,-586.258"/>
<polygon fill="black" stroke="black" points="1802.29,-586.42 1799.35,-576.242 1795.3,-586.034 1802.29,-586.42"/>
<text text-anchor="middle" x="1779.25" y="-778.8" font-family="Times,serif" font-size="14.00">0.01</text>
</g>
<!-- 10&#45;&gt;7 -->
<g id="edge46" class="edge"><title>10-&gt;7</title>
<path fill="none" stroke="black" stroke-width="0.1" d="M1532.13,-996.07C1508.84,-983.348 1470.69,-960.881 1442,-936 1342.67,-849.851 1326.81,-815.826 1261,-702 1256.08,-693.486 1251.43,-683.783 1247.56,-675.026"/>
<polygon fill="black" stroke="black" points="1250.7,-673.468 1243.54,-665.654 1244.26,-676.225 1250.7,-673.468"/>
<text text-anchor="middle" x="1364.25" y="-823.8" font-family="Times,serif" font-size="14.00">0.01</text>
</g>
<!-- 10&#45;&gt;6 -->
<g id="edge48" class="edge"><title>10-&gt;6</title>
<path fill="none" stroke="black" stroke-width="0.2" d="M1561.89,-990.704C1564.63,-984.954 1567.36,-978.339 1569,-972 1581.05,-925.433 1585.25,-911.204 1576,-864 1568.26,-824.463 1541.58,-785.425 1522.73,-761.765"/>
<polygon fill="black" stroke="black" points="1525.23,-759.292 1516.18,-753.772 1519.81,-763.727 1525.23,-759.292"/>
<text text-anchor="middle" x="1592.25" y="-868.8" font-family="Times,serif" font-size="14.00">0.02</text>
</g>
<!-- 10&#45;&gt;9 -->
<g id="edge50" class="edge"><title>10-&gt;9</title>
<path fill="none" stroke="black" stroke-width="1.1" d="M1580.03,-1006.47C1647.72,-1004.75 1822.69,-997.869 1874,-972 1927.22,-945.166 1969.78,-887.407 1991.09,-854.088"/>
<polygon fill="black" stroke="black" points="1994.2,-855.72 1996.53,-845.385 1988.26,-852.01 1994.2,-855.72"/>
<text text-anchor="middle" x="1970.25" y="-913.8" font-family="Times,serif" font-size="14.00">0.11</text>
</g>
<!-- 10&#45;&gt;8 -->
<g id="edge52" class="edge"><title>10-&gt;8</title>
<path fill="none" stroke="black" stroke-width="0.1" d="M1526.53,-1004.39C1495.2,-1000.53 1442.04,-991.538 1400.5,-972 1388.59,-966.401 1389.24,-958.824 1377,-954 1347.53,-942.387 1140.43,-927.27 1054.86,-921.44"/>
<polygon fill="black" stroke="black" points="1055.02,-917.943 1044.81,-920.76 1054.55,-924.927 1055.02,-917.943"/>
<text text-anchor="middle" x="1413.25" y="-958.8" font-family="Times,serif" font-size="14.00">0.01</text>
</g>
<!-- 13 -->
<g id="node3" class="node"><title>13</title>
<polygon fill="cyan" stroke="black" points="1856.47,-1206 1789.53,-1206 1789.53,-1170 1856.47,-1170 1856.47,-1206"/>
<text text-anchor="middle" x="1823" y="-1183.8" font-family="Times,serif" font-size="14.00">INITIAL</text>
</g>
<!-- 13&#45;&gt;11 -->
<g id="edge54" class="edge"><title>13-&gt;11</title>
<path fill="none" stroke="black" stroke-width="0" d="M1789.32,-1186.83C1738.97,-1185.61 1641.72,-1179.5 1564.5,-1152 1542.38,-1144.12 1519.84,-1130.08 1503.32,-1118.42"/>
<polygon fill="black" stroke="black" points="1504.95,-1115.28 1494.8,-1112.25 1500.84,-1120.95 1504.95,-1115.28"/>
<text text-anchor="middle" x="1573.75" y="-1138.8" font-family="Times,serif" font-size="14.00">0.0</text>
</g>
<!-- 13&#45;&gt;10 -->
<g id="edge56" class="edge"><title>13-&gt;10</title>
<path fill="none" stroke="black" stroke-width="0" d="M1797.11,-1169.93C1745.95,-1136.21 1632.36,-1061.32 1580.18,-1026.92"/>
<polygon fill="black" stroke="black" points="1582.04,-1023.95 1571.76,-1021.37 1578.18,-1029.79 1582.04,-1023.95"/>
<text text-anchor="middle" x="1723.75" y="-1093.8" font-family="Times,serif" font-size="14.00">0.0</text>
</g>
<!-- 13&#45;&gt;1 -->
<g id="edge58" class="edge"><title>13-&gt;1</title>
<path fill="none" stroke="black" stroke-width="0.6" d="M1856.39,-1186.3C2048.25,-1182.07 3002,-1158.08 3002,-1099 3002,-1099 3002,-1099 3002,-197 3002,-189.572 2964.06,-156.268 2926,-144 2820.97,-110.144 2042.53,-139.426 1933,-126 1919.92,-124.396 1905.76,-121.451 1893.37,-118.458"/>
<polygon fill="black" stroke="black" points="1893.99,-115.005 1883.44,-115.96 1892.28,-121.794 1893.99,-115.005"/>
<text text-anchor="middle" x="3014.25" y="-643.8" font-family="Times,serif" font-size="14.00">0.06</text>
</g>
<!-- 13&#45;&gt;0 -->
<g id="edge60" class="edge"><title>13-&gt;0</title>
<path fill="none" stroke="black" stroke-width="0" d="M1856.47,-1185.81C2029.23,-1179.48 2812,-1148.07 2812,-1099 2812,-1099 2812,-1099 2812,-782 2812,-671.702 2909.09,-641.951 2867,-540 2790.55,-354.818 2722.45,-307.32 2536,-234 2472.37,-208.978 2267.96,-201.669 2183.28,-199.686"/>
<polygon fill="black" stroke="black" points="2183.17,-196.182 2173.09,-199.46 2183.01,-203.181 2183.17,-196.182"/>
<text text-anchor="middle" x="2849.75" y="-688.8" font-family="Times,serif" font-size="14.00">0.0</text>
</g>
<!-- 13&#45;&gt;3 -->
<g id="edge62" class="edge"><title>13-&gt;3</title>
<path fill="none" stroke="black" stroke-width="1.2" d="M1789.39,-1187.16C1544.23,-1188.08 41,-1190.04 41,-1099 41,-1099 41,-1099 41,-872 41,-631.663 25.7129,-508.096 215,-360 255.847,-328.042 274.953,-333.164 326,-324 483.342,-295.753 986.407,-290.22 1128.37,-289.212"/>
<polygon fill="black" stroke="black" points="1128.75,-292.709 1138.72,-289.142 1128.7,-285.709 1128.75,-292.709"/>
<text text-anchor="middle" x="54.25" y="-733.8" font-family="Times,serif" font-size="14.00">0.12</text>
</g>
<!-- 13&#45;&gt;2 -->
<g id="edge64" class="edge"><title>13-&gt;2</title>
<path fill="none" stroke="black" stroke-width="0.1" d="M1789.61,-1186.72C1598.29,-1185.02 645.368,-1175.44 517,-1152 397.119,-1130.11 334.617,-1156.76 258,-1062 127.041,-900.021 137.739,-779.237 233,-594 302.204,-459.431 376.664,-456.134 522,-414 623.037,-384.708 748.157,-379.486 809.507,-378.833"/>
<polygon fill="black" stroke="black" points="809.873,-382.331 819.849,-378.761 809.824,-375.331 809.873,-382.331"/>
<text text-anchor="middle" x="178.25" y="-778.8" font-family="Times,serif" font-size="14.00">0.01</text>
</g>
<!-- 13&#45;&gt;5 -->
<g id="edge66" class="edge"><title>13-&gt;5</title>
<path fill="none" stroke="black" stroke-width="0" d="M1856.38,-1184.97C2019.1,-1174.26 2719.17,-1118.47 2668,-954 2539.97,-542.464 2238.1,-544.332 1809,-504 1669.83,-490.919 1633.39,-505.719 1495,-486 1481.95,-484.141 1467.8,-481.14 1455.41,-478.173"/>
<polygon fill="black" stroke="black" points="1456.02,-474.719 1445.47,-475.715 1454.34,-481.514 1456.02,-474.719"/>
<text text-anchor="middle" x="2634.75" y="-823.8" font-family="Times,serif" font-size="14.00">0.0</text>
</g>
<!-- 13&#45;&gt;4 -->
<g id="edge68" class="edge"><title>13-&gt;4</title>
<path fill="none" stroke="black" stroke-width="0.2" d="M1856.67,-1185.2C1907.65,-1181.89 2007.14,-1173.13 2089,-1152 2300.77,-1097.33 2423.84,-1152.74 2547,-972 2674.02,-785.596 2380.26,-716.667 2172,-630 2103.5,-601.495 2081.83,-608.131 2009,-594 1948.57,-582.275 1877.85,-570.925 1836.11,-564.469"/>
<polygon fill="black" stroke="black" points="1836.56,-560.997 1826.14,-562.936 1835.5,-567.916 1836.56,-560.997"/>
<text text-anchor="middle" x="2590.25" y="-868.8" font-family="Times,serif" font-size="14.00">0.02</text>
</g>
<!-- 13&#45;&gt;7 -->
<g id="edge70" class="edge"><title>13-&gt;7</title>
<path fill="none" stroke="black" stroke-width="0" d="M1789.39,-1187.03C1659.81,-1186.9 1180.26,-1184.12 787,-1152 641.455,-1140.11 515.929,-1200.95 471,-1062 464.169,-1040.87 479.742,-994.579 483,-990 520.538,-937.235 918.034,-705.827 979,-684 1054.09,-657.115 1148.24,-650.664 1199.5,-649.251"/>
<polygon fill="black" stroke="black" points="1199.84,-652.744 1209.76,-649.02 1199.69,-645.745 1199.84,-652.744"/>
<text text-anchor="middle" x="611.75" y="-913.8" font-family="Times,serif" font-size="14.00">0.0</text>
</g>
<!-- 13&#45;&gt;6 -->
<g id="edge72" class="edge"><title>13-&gt;6</title>
<path fill="none" stroke="black" stroke-width="0.2" d="M1856.42,-1171.94C1894.64,-1152.64 1955.25,-1115.21 1981,-1062 2012.37,-997.191 2006.59,-967.3 1981,-900 1961.98,-849.975 1949.04,-833.585 1901,-810 1848.61,-784.281 1695.95,-804.741 1639,-792 1601.34,-783.574 1560.35,-766.416 1533.33,-753.897"/>
<polygon fill="black" stroke="black" points="1534.58,-750.615 1524.04,-749.52 1531.59,-756.948 1534.58,-750.615"/>
<text text-anchor="middle" x="2014.25" y="-958.8" font-family="Times,serif" font-size="14.00">0.02</text>
</g>
<!-- 13&#45;&gt;9 -->
<g id="edge74" class="edge"><title>13-&gt;9</title>
<path fill="none" stroke="black" stroke-width="0" d="M1856.55,-1186.24C1915.1,-1184.25 2032.69,-1177.16 2064,-1152 2136.53,-1093.72 2149.89,-1045.31 2132,-954 2123.36,-909.916 2120.43,-892.857 2086,-864 2072.75,-852.896 2055.44,-844.74 2040.3,-839.109"/>
<polygon fill="black" stroke="black" points="2041.33,-835.761 2030.74,-835.767 2039.02,-842.37 2041.33,-835.761"/>
<text text-anchor="middle" x="2148.75" y="-1003.8" font-family="Times,serif" font-size="14.00">0.0</text>
</g>
<!-- 13&#45;&gt;8 -->
<g id="edge76" class="edge"><title>13-&gt;8</title>
<path fill="none" stroke="black" stroke-width="7.6" d="M1789.42,-1186.51C1590.62,-1183.24 573.359,-1161.73 482.5,-1062 411.909,-984.52 849.25,-935.352 981.165,-922.419"/>
<polygon fill="black" stroke="black" points="981.881,-929.03 991.194,-921.448 980.6,-915.792 981.881,-929.03"/>
<text text-anchor="middle" x="495.25" y="-1048.8" font-family="Times,serif" font-size="14.00">0.76</text>
</g>
<!-- 1&#45;&gt;11 -->
<g id="edge78" class="edge"><title>1-&gt;11</title>
<path fill="none" stroke="black" stroke-width="0.2" d="M1883.44,-115.947C1897.75,-119.68 1916.25,-123.93 1933,-126 1982.08,-132.068 2779.87,-119.804 2823,-144 2906.09,-190.614 2926,-236.726 2926,-332 2926,-514 2926,-514 2926,-514 2926,-927.55 2581.08,-989.131 2174,-1062 2061.06,-1082.22 1772.5,-1072.6 1658,-1080 1608.25,-1083.21 1550.95,-1088.98 1514.61,-1092.9"/>
<polygon fill="black" stroke="black" points="1514.06,-1089.44 1504.49,-1094 1514.81,-1096.4 1514.06,-1089.44"/>
<text text-anchor="middle" x="2933.25" y="-598.8" font-family="Times,serif" font-size="14.00">0.02</text>
</g>
<!-- 1&#45;&gt;10 -->
<g id="edge80" class="edge"><title>1-&gt;10</title>
<path fill="none" stroke="black" stroke-width="0.4" d="M1883.44,-115.929C1897.76,-119.656 1916.26,-123.906 1933,-126 1976.01,-131.38 2675.44,-122.363 2713,-144 2814.27,-202.339 2829.27,-561.47 2777,-666 2774.02,-671.963 2589.87,-805.447 2585,-810 2554.15,-838.837 2560.19,-861.998 2523,-882 2467.36,-911.923 2444.05,-888.11 2382,-900 2255.8,-924.183 2228.9,-951.823 2102,-972 1911.21,-1002.34 1679.17,-1006.58 1590.18,-1007.03"/>
<polygon fill="black" stroke="black" points="1590.03,-1003.53 1580.05,-1007.07 1590.06,-1010.53 1590.03,-1003.53"/>
<text text-anchor="middle" x="2816.25" y="-553.8" font-family="Times,serif" font-size="14.00">0.04</text>
</g>
<!-- 1&#45;&gt;12 -->
<g id="edge82" class="edge"><title>1-&gt;12</title>
<path fill="none" stroke="black" stroke-width="1.6" d="M1832.04,-105.34C1664.85,-95.044 767.978,-39.8132 503.47,-23.5244"/>
<polygon fill="black" stroke="black" points="503.407,-20.014 493.211,-22.8926 502.977,-27.0007 503.407,-20.014"/>
<text text-anchor="middle" x="1285.25" y="-58.8" font-family="Times,serif" font-size="14.00">0.16</text>
</g>
<!-- 1&#45;&gt;1 -->
<g id="edge84" class="edge"><title>1-&gt;1</title>
<path fill="none" stroke="black" stroke-width="1.3" d="M1883.53,-116.121C1894.51,-116.895 1904,-114.188 1904,-108 1904,-103.843 1899.72,-101.257 1893.57,-100.242"/>
<polygon fill="black" stroke="black" points="1893.65,-96.7424 1883.53,-99.8789 1893.4,-103.738 1893.65,-96.7424"/>
<text text-anchor="middle" x="1916.25" y="-103.8" font-family="Times,serif" font-size="14.00">0.13</text>
</g>
<!-- 1&#45;&gt;0 -->
<g id="edge86" class="edge"><title>1-&gt;0</title>
<path fill="none" stroke="black" stroke-width="0.2" d="M1881.76,-117.973C1910.53,-129.134 1961.72,-148.375 2006.5,-162 2041.6,-172.682 2082.37,-182.633 2110.74,-189.173"/>
<polygon fill="black" stroke="black" points="2110.06,-192.609 2120.59,-191.423 2111.62,-185.785 2110.06,-192.609"/>
<text text-anchor="middle" x="2019.25" y="-148.8" font-family="Times,serif" font-size="14.00">0.02</text>
</g>
<!-- 1&#45;&gt;3 -->
<g id="edge88" class="edge"><title>1-&gt;3</title>
<path fill="none" stroke="black" stroke-width="1.8" d="M1831.71,-108.65C1769.95,-108.491 1615.21,-111.665 1491,-144 1431.03,-159.61 1264.81,-238.896 1196.21,-272.217"/>
<polygon fill="black" stroke="black" points="1194.66,-269.08 1187.2,-276.603 1197.72,-275.374 1194.66,-269.08"/>
<text text-anchor="middle" x="1404.25" y="-193.8" font-family="Times,serif" font-size="14.00">0.18</text>
</g>
<!-- 1&#45;&gt;2 -->
<g id="edge90" class="edge"><title>1-&gt;2</title>
<path fill="none" stroke="black" stroke-width="0.3" d="M1831.82,-108.408C1754.51,-107.243 1527.06,-107.428 1343,-144 1293.79,-153.778 1282.9,-162.178 1236,-180 1082.98,-238.143 1031.35,-230.479 897,-324 885.203,-332.212 874.028,-343.575 865.247,-353.674"/>
<polygon fill="black" stroke="black" points="862.497,-351.508 858.752,-361.419 867.86,-356.006 862.497,-351.508"/>
<text text-anchor="middle" x="1086.25" y="-238.8" font-family="Times,serif" font-size="14.00">0.03</text>
</g>
<!-- 1&#45;&gt;5 -->
<g id="edge92" class="edge"><title>1-&gt;5</title>
<path fill="none" stroke="black" stroke-width="0.1" d="M1831.98,-109.678C1767.48,-112.97 1605.35,-131.527 1544,-234 1539.89,-240.864 1539.25,-245.559 1544,-252 1560.01,-273.73 1583.89,-249.985 1602,-270 1614.78,-284.129 1622.49,-324.199 1613,-342 1579.8,-404.296 1500.35,-440.294 1454.74,-456.516"/>
<polygon fill="black" stroke="black" points="1453.59,-453.209 1445.28,-459.771 1455.87,-459.828 1453.59,-453.209"/>
<text text-anchor="middle" x="1629.25" y="-283.8" font-family="Times,serif" font-size="14.00">0.01</text>
</g>
<!-- 1&#45;&gt;4 -->
<g id="edge94" class="edge"><title>1-&gt;4</title>
<path fill="none" stroke="black" stroke-width="0.6" d="M1857.66,-126.189C1854.27,-174.649 1847.57,-310.873 1876.5,-342 1913.36,-381.667 1961.65,-318.979 1997,-360 2007.44,-372.121 2001.55,-380.661 1997,-396 1977.99,-460.054 1968.41,-481.85 1915,-522 1892.08,-539.228 1860.65,-548.045 1836.43,-552.517"/>
<polygon fill="black" stroke="black" points="1835.82,-549.07 1826.54,-554.179 1836.99,-555.973 1835.82,-549.07"/>
<text text-anchor="middle" x="1889.25" y="-328.8" font-family="Times,serif" font-size="14.00">0.06</text>
</g>
<!-- 1&#45;&gt;7 -->
<g id="edge96" class="edge"><title>1-&gt;7</title>
<path fill="none" stroke="black" stroke-width="0.1" d="M1842.57,-122.375C1825.11,-138.193 1800,-166.282 1800,-197 1800,-379 1800,-379 1800,-379 1800,-459.729 1755.16,-477.202 1688,-522 1581.82,-592.825 1532.04,-556.644 1410,-594 1389.4,-600.305 1385.42,-605.148 1365,-612 1333.96,-622.416 1297.93,-632.054 1272.02,-638.568"/>
<polygon fill="black" stroke="black" points="1271.13,-635.182 1262.27,-640.992 1272.82,-641.976 1271.13,-635.182"/>
<text text-anchor="middle" x="1812.25" y="-373.8" font-family="Times,serif" font-size="14.00">0.01</text>
</g>
<!-- 1&#45;&gt;6 -->
<g id="edge98" class="edge"><title>1-&gt;6</title>
<path fill="none" stroke="black" stroke-width="0.2" d="M1883.45,-115.898C1897.76,-119.614 1916.26,-123.864 1933,-126 1968.39,-130.516 2550.13,-118.419 2575,-144 2625.19,-195.62 2604.89,-240.498 2575,-306 2545.54,-370.552 2141.17,-679.126 2074,-702 1969.38,-737.627 1686.57,-705.563 1577,-720 1563.93,-721.722 1549.78,-724.693 1537.39,-727.674"/>
<polygon fill="black" stroke="black" points="1536.31,-724.336 1527.45,-730.153 1538,-731.127 1536.31,-724.336"/>
<text text-anchor="middle" x="2479.25" y="-418.8" font-family="Times,serif" font-size="14.00">0.02</text>
</g>
<!-- 1&#45;&gt;9 -->
<g id="edge100" class="edge"><title>1-&gt;9</title>
<path fill="none" stroke="black" stroke-width="3.2" d="M1883.44,-115.925C1897.76,-119.65 1916.26,-123.9 1933,-126 1974.69,-131.23 2654.27,-120.364 2689,-144 2724.9,-168.428 2718.38,-191.444 2727,-234 2761.29,-403.364 2746.69,-479.308 2636,-612 2540.27,-726.753 2493.24,-743.171 2352,-792 2323.31,-801.92 2126.09,-817.859 2042.9,-824.234"/>
<polygon fill="black" stroke="black" points="2042.57,-820.749 2032.87,-824.999 2043.11,-827.728 2042.57,-820.749"/>
<text text-anchor="middle" x="2745.25" y="-463.8" font-family="Times,serif" font-size="14.00">0.32</text>
</g>
<!-- 1&#45;&gt;8 -->
<g id="edge102" class="edge"><title>1-&gt;8</title>
<path fill="none" stroke="black" stroke-width="0" d="M1831.99,-109.217C1638.81,-110.821 474.042,-121.42 446,-144 265.258,-289.535 292.828,-482.601 435,-666 465.12,-704.854 679.424,-841.319 810,-882 868.336,-900.175 938.992,-909.526 981.124,-913.835"/>
<polygon fill="black" stroke="black" points="980.902,-917.33 991.196,-914.824 981.586,-910.364 980.902,-917.33"/>
<text text-anchor="middle" x="357.75" y="-508.8" font-family="Times,serif" font-size="14.00">0.0</text>
</g>
<!-- 0&#45;&gt;11 -->
<g id="edge104" class="edge"><title>0-&gt;11</title>
<path fill="none" stroke="black" stroke-width="0.3" d="M2173.02,-199.554C2246.31,-201.38 2447.43,-208.628 2508,-234 2530.99,-243.63 2535.05,-250.851 2551,-270 2718.28,-470.762 2827.7,-638.392 2669,-846 2612.25,-920.235 2565.64,-901.004 2479,-936 2375.3,-977.888 2349.82,-989.784 2244,-1026 2191.72,-1043.89 2179.5,-1052.86 2125,-1062 1920.15,-1096.35 1865.25,-1066.23 1658,-1080 1608.26,-1083.31 1550.95,-1089.05 1514.62,-1092.94"/>
<polygon fill="black" stroke="black" points="1514.06,-1089.48 1504.5,-1094.03 1514.81,-1096.44 1514.06,-1089.48"/>
<text text-anchor="middle" x="2759.25" y="-643.8" font-family="Times,serif" font-size="14.00">0.03</text>
</g>
<!-- 0&#45;&gt;10 -->
<g id="edge106" class="edge"><title>0-&gt;10</title>
<path fill="none" stroke="black" stroke-width="0.5" d="M2173.07,-200.627C2227.34,-204.269 2347.29,-214.342 2383,-234 2401.5,-244.183 2403.7,-251.569 2414,-270 2539.01,-493.679 2624.57,-669.295 2439,-846 2413.66,-870.125 2402.73,-872.716 2369,-882 2244.92,-916.154 2205.5,-871.502 2080,-900 1996.78,-918.897 1984.85,-951.536 1902,-972 1790.84,-999.458 1654.69,-1005.46 1590.23,-1006.72"/>
<polygon fill="black" stroke="black" points="1590.09,-1003.22 1580.15,-1006.88 1590.21,-1010.22 1590.09,-1003.22"/>
<text text-anchor="middle" x="2559.25" y="-598.8" font-family="Times,serif" font-size="14.00">0.05</text>
</g>
<!-- 0&#45;&gt;12 -->
<g id="edge108" class="edge"><title>0-&gt;12</title>
<path fill="none" stroke="black" stroke-width="1.2" d="M2135.07,-181.062C2126.28,-169.332 2112.96,-153.785 2098,-144 2034.84,-102.687 2011.11,-104.26 1937,-90 1662.45,-37.1765 797.779,-23.079 518.163,-19.8535"/>
<polygon fill="black" stroke="black" points="518.106,-16.3527 508.067,-19.7388 518.027,-23.3523 518.106,-16.3527"/>
<text text-anchor="middle" x="2080.25" y="-103.8" font-family="Times,serif" font-size="14.00">0.12</text>
</g>
<!-- 0&#45;&gt;1 -->
<g id="edge110" class="edge"><title>0-&gt;1</title>
<path fill="none" stroke="black" stroke-width="2" d="M2125.81,-185.947C2103.28,-174.039 2065.47,-155.283 2031,-144 1985.46,-129.096 1930.98,-119.297 1895.72,-113.954"/>
<polygon fill="black" stroke="black" points="1895.82,-110.432 1885.42,-112.438 1894.8,-117.357 1895.82,-110.432"/>
<text text-anchor="middle" x="2085.75" y="-148.8" font-family="Times,serif" font-size="14.00">0.2</text>
</g>
<!-- 0&#45;&gt;0 -->
<g id="edge112" class="edge"><title>0-&gt;0</title>
<path fill="none" stroke="black" stroke-width="0.3" d="M2170.53,-206.121C2181.51,-206.895 2191,-204.188 2191,-198 2191,-193.843 2186.72,-191.257 2180.57,-190.242"/>
<polygon fill="black" stroke="black" points="2180.65,-186.742 2170.53,-189.879 2180.4,-193.738 2180.65,-186.742"/>
<text text-anchor="middle" x="2203.25" y="-193.8" font-family="Times,serif" font-size="14.00">0.03</text>
</g>
<!-- 0&#45;&gt;3 -->
<g id="edge114" class="edge"><title>0-&gt;3</title>
<path fill="none" stroke="black" stroke-width="1.7" d="M2118.99,-199.932C2036.04,-202.945 1777.67,-213.436 1564.5,-234 1494.3,-240.772 1286.57,-269.885 1202.21,-281.843"/>
<polygon fill="black" stroke="black" points="1201.5,-278.409 1192.09,-283.28 1202.48,-285.34 1201.5,-278.409"/>
<text text-anchor="middle" x="1577.25" y="-238.8" font-family="Times,serif" font-size="14.00">0.17</text>
</g>
<!-- 0&#45;&gt;2 -->
<g id="edge116" class="edge"><title>0-&gt;2</title>
<path fill="none" stroke="black" stroke-width="0.3" d="M2118.81,-199.347C2033.22,-200.713 1770.26,-207.05 1690,-234 1675.98,-238.709 1675.89,-246.897 1662,-252 1605.39,-272.804 1580.47,-241.167 1527.5,-270 1490.54,-290.12 1503.71,-323.31 1466,-342 1439.85,-354.961 1013.65,-371.084 884.075,-375.707"/>
<polygon fill="black" stroke="black" points="883.735,-372.217 873.866,-376.069 883.983,-379.213 883.735,-372.217"/>
<text text-anchor="middle" x="1540.25" y="-283.8" font-family="Times,serif" font-size="14.00">0.03</text>
</g>
<!-- 0&#45;&gt;5 -->
<g id="edge118" class="edge"><title>0-&gt;5</title>
<path fill="none" stroke="black" stroke-width="0.1" d="M2119.2,-200.991C2074.73,-204.728 1983.13,-214.259 1908,-234 1800.43,-262.265 1759.74,-252.554 1674.5,-324 1645.85,-348.017 1655,-367.329 1631,-396 1615.44,-414.596 1611.7,-421.183 1590,-432 1584.02,-434.981 1504.29,-450.806 1456.52,-460.125"/>
<polygon fill="black" stroke="black" points="1455.7,-456.717 1446.56,-462.063 1457.04,-463.588 1455.7,-456.717"/>
<text text-anchor="middle" x="1687.25" y="-328.8" font-family="Times,serif" font-size="14.00">0.01</text>
</g>
<!-- 0&#45;&gt;4 -->
<g id="edge120" class="edge"><title>0-&gt;4</title>
<path fill="none" stroke="black" stroke-width="0.6" d="M2122.71,-207.333C2108.05,-213.306 2089.26,-222.35 2075,-234 1949.63,-336.416 1970.21,-411.395 1852,-522 1844.88,-528.661 1836.38,-534.947 1828.33,-540.304"/>
<polygon fill="black" stroke="black" points="1826.39,-537.386 1819.86,-545.726 1830.17,-543.281 1826.39,-537.386"/>
<text text-anchor="middle" x="1981.25" y="-373.8" font-family="Times,serif" font-size="14.00">0.06</text>
</g>
<!-- 0&#45;&gt;7 -->
<g id="edge122" class="edge"><title>0-&gt;7</title>
<path fill="none" stroke="black" stroke-width="0" d="M2145.93,-216.305C2144.62,-278.554 2130.72,-491.839 2004,-576 1973.2,-596.456 1423.02,-634.568 1273.98,-644.554"/>
<polygon fill="black" stroke="black" points="1273.7,-641.064 1263.95,-645.223 1274.16,-648.049 1273.7,-641.064"/>
<text text-anchor="middle" x="2122.75" y="-418.8" font-family="Times,serif" font-size="14.00">0.0</text>
</g>
<!-- 0&#45;&gt;6 -->
<g id="edge124" class="edge"><title>0-&gt;6</title>
<path fill="none" stroke="black" stroke-width="0.3" d="M2163.76,-211.735C2183.01,-227.164 2211,-255.091 2211,-287 2211,-424 2211,-424 2211,-424 2211,-510.071 2160.55,-525.301 2091,-576 2039.76,-613.348 1896.22,-685.484 1835,-702 1724.02,-731.941 1690.69,-703.08 1577,-720 1563.96,-721.94 1549.82,-724.959 1537.42,-727.917"/>
<polygon fill="black" stroke="black" points="1536.36,-724.575 1527.48,-730.363 1538.03,-731.372 1536.36,-724.575"/>
<text text-anchor="middle" x="2222.25" y="-463.8" font-family="Times,serif" font-size="14.00">0.03</text>
</g>
<!-- 0&#45;&gt;9 -->
<g id="edge126" class="edge"><title>0-&gt;9</title>
<path fill="none" stroke="black" stroke-width="2.7" d="M2173.18,-198.432C2203.87,-199.298 2253.38,-205.481 2283,-234 2337.1,-286.083 2283.43,-337.892 2331,-396 2341.83,-409.231 2356.18,-399.352 2365,-414 2393.92,-462.039 2371.4,-613.389 2352,-666 2339.82,-699.027 2286.38,-774.223 2256,-792 2220.67,-812.671 2103.81,-821.81 2043.2,-825.241"/>
<polygon fill="black" stroke="black" points="2042.71,-821.762 2032.92,-825.799 2043.09,-828.752 2042.71,-821.762"/>
<text text-anchor="middle" x="2391.25" y="-508.8" font-family="Times,serif" font-size="14.00">0.27</text>
</g>
<!-- 0&#45;&gt;8 -->
<g id="edge128" class="edge"><title>0-&gt;8</title>
<path fill="none" stroke="black" stroke-width="0" d="M2172.89,-200.107C2223.67,-202.72 2331.06,-210.89 2359,-234 2424.66,-288.311 2401.69,-332.042 2425,-414 2471.07,-575.974 2535.1,-646.105 2451,-792 2417.71,-849.759 2394.05,-860.353 2331,-882 2278.13,-900.15 1380.86,-897.954 1325,-900 1227.32,-903.577 1112.32,-910.734 1054.74,-914.52"/>
<polygon fill="black" stroke="black" points="1054.42,-911.033 1044.68,-915.186 1054.89,-918.018 1054.42,-911.033"/>
<text text-anchor="middle" x="2487.75" y="-553.8" font-family="Times,serif" font-size="14.00">0.0</text>
</g>
<!-- 3&#45;&gt;11 -->
<g id="edge130" class="edge"><title>3-&gt;11</title>
<path fill="none" stroke="black" stroke-width="0.4" d="M1138.83,-289.502C1016.31,-291.876 518.258,-302.764 452,-324 423.824,-333.031 418.519,-340.808 396,-360 330.604,-415.735 298.47,-424.045 267,-504 196.45,-683.245 250.288,-750.442 302,-936 313.565,-977.5 305.82,-997.357 338,-1026 383.743,-1066.72 410.445,-1052.88 471,-1062 663.345,-1090.98 1281.45,-1096.02 1440.43,-1096.85"/>
<polygon fill="black" stroke="black" points="1440.64,-1100.35 1450.65,-1096.9 1440.67,-1093.35 1440.64,-1100.35"/>
<text text-anchor="middle" x="249.25" y="-688.8" font-family="Times,serif" font-size="14.00">0.04</text>
</g>
<!-- 3&#45;&gt;10 -->
<g id="edge132" class="edge"><title>3-&gt;10</title>
<path fill="none" stroke="black" stroke-width="0.5" d="M1138.71,-289.115C1029.65,-289.779 625.087,-294.238 501,-324 491.423,-326.297 426.893,-352.966 420,-360 397.223,-383.243 315.287,-598.666 306.5,-630 298.581,-658.237 281.808,-732.45 293,-756 361.327,-899.773 478.101,-943.13 567,-972 627.689,-991.709 1077.23,-987.685 1141,-990 1279.14,-995.016 1443.28,-1002.14 1515.61,-1005.33"/>
<polygon fill="black" stroke="black" points="1515.86,-1008.85 1526.01,-1005.79 1516.17,-1001.85 1515.86,-1008.85"/>
<text text-anchor="middle" x="319.25" y="-643.8" font-family="Times,serif" font-size="14.00">0.05</text>
</g>
<!-- 3&#45;&gt;12 -->
<g id="edge134" class="edge"><title>3-&gt;12</title>
<path fill="none" stroke="black" stroke-width="2.7" d="M1138.65,-287.25C1022,-288.085 569.618,-288.905 519,-252 451.849,-203.041 435.362,-96.5384 431.315,-46.2868"/>
<polygon fill="black" stroke="black" points="434.798,-45.911 430.61,-36.1787 427.815,-46.398 434.798,-45.911"/>
<text text-anchor="middle" x="468.25" y="-148.8" font-family="Times,serif" font-size="14.00">0.27</text>
</g>
<!-- 3&#45;&gt;1 -->
<g id="edge136" class="edge"><title>3-&gt;1</title>
<path fill="none" stroke="black" stroke-width="1.1" d="M1179.08,-272.079C1200.3,-248.81 1244.63,-204.06 1291.5,-180 1384.88,-132.062 1711.11,-114.878 1821.88,-110.348"/>
<polygon fill="black" stroke="black" points="1822.05,-113.844 1831.91,-109.948 1821.78,-106.849 1822.05,-113.844"/>
<text text-anchor="middle" x="1304.25" y="-193.8" font-family="Times,serif" font-size="14.00">0.11</text>
</g>
<!-- 3&#45;&gt;0 -->
<g id="edge138" class="edge"><title>3-&gt;0</title>
<path fill="none" stroke="black" stroke-width="0.3" d="M1192.71,-285.207C1282.73,-279.108 1570.46,-259.151 1589,-252 1601.27,-247.266 1600.19,-238.629 1612.5,-234 1703.53,-199.779 2003.01,-198.13 2108.68,-198.659"/>
<polygon fill="black" stroke="black" points="2108.84,-202.16 2118.86,-198.72 2108.88,-195.16 2108.84,-202.16"/>
<text text-anchor="middle" x="1625.25" y="-238.8" font-family="Times,serif" font-size="14.00">0.03</text>
</g>
<!-- 3&#45;&gt;3 -->
<g id="edge140" class="edge"><title>3-&gt;3</title>
<path fill="none" stroke="black" stroke-width="2.1" d="M1190.53,-296.121C1201.51,-296.895 1211,-294.188 1211,-288 1211,-283.843 1206.72,-281.257 1200.57,-280.242"/>
<polygon fill="black" stroke="black" points="1200.65,-276.742 1190.53,-279.879 1200.4,-283.738 1200.65,-276.742"/>
<text text-anchor="middle" x="1223.25" y="-283.8" font-family="Times,serif" font-size="14.00">0.21</text>
</g>
<!-- 3&#45;&gt;2 -->
<g id="edge142" class="edge"><title>3-&gt;2</title>
<path fill="none" stroke="black" stroke-width="0.4" d="M1139.04,-289.797C1095.3,-291.812 1006.72,-298.924 936.5,-324 913.474,-332.223 889.768,-346.574 872.543,-358.27"/>
<polygon fill="black" stroke="black" points="870.375,-355.514 864.165,-364.098 874.373,-361.261 870.375,-355.514"/>
<text text-anchor="middle" x="949.25" y="-328.8" font-family="Times,serif" font-size="14.00">0.04</text>
</g>
<!-- 3&#45;&gt;5 -->
<g id="edge144" class="edge"><title>3-&gt;5</title>
<path fill="none" stroke="black" stroke-width="0.1" d="M1193.23,-288.828C1227.36,-289.889 1286.32,-296.071 1327,-324 1349.26,-339.282 1387.29,-404.949 1407.48,-441.751"/>
<polygon fill="black" stroke="black" points="1404.59,-443.758 1412.45,-450.869 1410.74,-440.412 1404.59,-443.758"/>
<text text-anchor="middle" x="1393.25" y="-373.8" font-family="Times,serif" font-size="14.00">0.01</text>
</g>
<!-- 3&#45;&gt;4 -->
<g id="edge146" class="edge"><title>3-&gt;4</title>
<path fill="none" stroke="black" stroke-width="0.3" d="M1191.22,-294.46C1208.98,-298.148 1233.36,-302.892 1255,-306 1337.21,-317.804 1364.4,-291.907 1441,-324 1486.98,-343.263 1483.37,-371.888 1527,-396 1595.27,-433.732 1627.56,-409.133 1694,-450 1696.52,-451.547 1748.29,-504.214 1778.53,-535.069"/>
<polygon fill="black" stroke="black" points="1776.21,-537.705 1785.71,-542.399 1781.21,-532.806 1776.21,-537.705"/>
<text text-anchor="middle" x="1669.25" y="-418.8" font-family="Times,serif" font-size="14.00">0.03</text>
</g>
<!-- 3&#45;&gt;7 -->
<g id="edge148" class="edge"><title>3-&gt;7</title>
<path fill="none" stroke="black" stroke-width="0.1" d="M1163.4,-306.118C1158.7,-340.622 1150.5,-420.792 1164.5,-486 1165.26,-489.561 1204.88,-576.632 1225.22,-621.209"/>
<polygon fill="black" stroke="black" points="1222.14,-622.896 1229.48,-630.54 1228.51,-619.989 1222.14,-622.896"/>
<text text-anchor="middle" x="1177.25" y="-463.8" font-family="Times,serif" font-size="14.00">0.01</text>
</g>
<!-- 3&#45;&gt;6 -->
<g id="edge150" class="edge"><title>3-&gt;6</title>
<path fill="none" stroke="black" stroke-width="0.4" d="M1191.7,-293.92C1209.48,-297.32 1233.67,-301.943 1255,-306 1297.22,-314.031 1309.9,-308.558 1350,-324 1412.55,-348.084 1550.85,-451.1 1592,-504 1663.07,-595.358 1655.33,-584.192 1632,-612 1602.41,-647.266 1563.71,-598.65 1530,-630 1508.25,-650.23 1502.94,-685.208 1502.14,-709.646"/>
<polygon fill="black" stroke="black" points="1498.64,-709.687 1502.04,-719.721 1505.64,-709.756 1498.64,-709.687"/>
<text text-anchor="middle" x="1618.25" y="-508.8" font-family="Times,serif" font-size="14.00">0.04</text>
</g>
<!-- 3&#45;&gt;9 -->
<g id="edge152" class="edge"><title>3-&gt;9</title>
<path fill="none" stroke="black" stroke-width="1.5" d="M1191.19,-294.617C1208.95,-298.377 1233.32,-303.143 1255,-306 1363.25,-320.266 1393.34,-300.667 1500,-324 1555.85,-336.217 1690.1,-387.972 1741,-414 1774.65,-431.205 2036.16,-598.623 2052,-630 2084.57,-694.51 2073.01,-728.781 2038,-792 2035.42,-796.652 2032.11,-801.185 2028.59,-805.363"/>
<polygon fill="black" stroke="black" points="2025.88,-803.147 2021.73,-812.896 2031.05,-807.863 2025.88,-803.147"/>
<text text-anchor="middle" x="2001.25" y="-553.8" font-family="Times,serif" font-size="14.00">0.15</text>
</g>
<!-- 3&#45;&gt;8 -->
<g id="edge154" class="edge"><title>3-&gt;8</title>
<path fill="none" stroke="black" stroke-width="0.1" d="M1139,-290.68C1037.67,-297.62 682.589,-327.854 620,-414 524.695,-545.175 653.976,-623.197 747,-756 795.598,-825.38 815.444,-841.791 890,-882 918.82,-897.543 955.095,-906.616 981.662,-911.612"/>
<polygon fill="black" stroke="black" points="981.231,-915.09 991.689,-913.391 982.454,-908.198 981.231,-915.09"/>
<text text-anchor="middle" x="644.25" y="-598.8" font-family="Times,serif" font-size="14.00">0.01</text>
</g>
<!-- 2&#45;&gt;11 -->
<g id="edge156" class="edge"><title>2-&gt;11</title>
<path fill="none" stroke="black" stroke-width="0.4" d="M819.948,-378.321C777.572,-378.337 693.979,-382.786 632,-414 511.862,-474.504 473.697,-506.669 420,-630 365.675,-754.774 337.454,-820.237 409,-936 456.023,-1012.08 505.015,-995.235 589,-1026 652.565,-1049.28 669.994,-1052.36 737,-1062 875.095,-1081.87 1310.2,-1093.18 1440.66,-1096.18"/>
<polygon fill="black" stroke="black" points="1440.85,-1099.69 1450.93,-1096.42 1441.01,-1092.69 1440.85,-1099.69"/>
<text text-anchor="middle" x="396.25" y="-733.8" font-family="Times,serif" font-size="14.00">0.04</text>
</g>
<!-- 2&#45;&gt;10 -->
<g id="edge158" class="edge"><title>2-&gt;10</title>
<path fill="none" stroke="black" stroke-width="0.4" d="M826.753,-389.918C779.049,-416.957 660.287,-492.279 616,-594 581.208,-673.912 733.914,-890.091 808,-936 838.438,-954.862 1369.06,-993.899 1515.72,-1004.37"/>
<polygon fill="black" stroke="black" points="1515.77,-1007.88 1525.99,-1005.1 1516.26,-1000.9 1515.77,-1007.88"/>
<text text-anchor="middle" x="644.25" y="-688.8" font-family="Times,serif" font-size="14.00">0.04</text>
</g>
<!-- 2&#45;&gt;12 -->
<g id="edge160" class="edge"><title>2-&gt;12</title>
<path fill="none" stroke="black" stroke-width="1.8" d="M819.968,-376.393C743.081,-373.394 519.466,-355.714 376,-252 304.683,-200.444 328.069,-127.143 377,-54 381.656,-47.0404 388.213,-41.13 395.134,-36.2587"/>
<polygon fill="black" stroke="black" points="397.413,-38.9579 403.979,-30.6434 393.661,-33.0482 397.413,-38.9579"/>
<text text-anchor="middle" x="355.25" y="-193.8" font-family="Times,serif" font-size="14.00">0.18</text>
</g>
<!-- 2&#45;&gt;1 -->
<g id="edge162" class="edge"><title>2-&gt;1</title>
<path fill="none" stroke="black" stroke-width="1.2" d="M853.911,-360.157C858.636,-349.426 865.403,-335.441 873,-324 890.6,-297.493 894.57,-289.122 920,-270 944.985,-251.213 1113.22,-184.484 1127,-180 1192.61,-158.654 1209.75,-154.113 1278,-144 1481.6,-113.831 1729.02,-109.513 1821.64,-109.008"/>
<polygon fill="black" stroke="black" points="1821.91,-112.507 1831.9,-108.964 1821.88,-105.507 1821.91,-112.507"/>
<text text-anchor="middle" x="1006.25" y="-238.8" font-family="Times,serif" font-size="14.00">0.12</text>
</g>
<!-- 2&#45;&gt;0 -->
<g id="edge164" class="edge"><title>2-&gt;0</title>
<path fill="none" stroke="black" stroke-width="0.2" d="M873.076,-372.931C913.845,-366.538 995.147,-353.665 1064,-342 1244.47,-311.426 1288.29,-295.794 1469.5,-270 1543.63,-259.449 1566.39,-276.912 1637,-252 1650.95,-247.078 1650.97,-238.682 1665,-234 1747.19,-206.582 2010.85,-200.621 2108.86,-199.343"/>
<polygon fill="black" stroke="black" points="2108.94,-202.842 2118.89,-199.221 2108.85,-195.843 2108.94,-202.842"/>
<text text-anchor="middle" x="1482.25" y="-283.8" font-family="Times,serif" font-size="14.00">0.02</text>
</g>
<!-- 2&#45;&gt;3 -->
<g id="edge166" class="edge"><title>2-&gt;3</title>
<path fill="none" stroke="black" stroke-width="1.4" d="M871.502,-370.241C927.865,-354.692 1066.84,-316.354 1131.67,-298.47"/>
<polygon fill="black" stroke="black" points="1132.71,-301.815 1141.41,-295.782 1130.84,-295.068 1132.71,-301.815"/>
<text text-anchor="middle" x="1048.25" y="-328.8" font-family="Times,serif" font-size="14.00">0.14</text>
</g>
<!-- 2&#45;&gt;2 -->
<g id="edge168" class="edge"><title>2-&gt;2</title>
<path fill="none" stroke="black" stroke-width="0.4" d="M871.532,-386.121C882.508,-386.895 892,-384.188 892,-378 892,-373.843 887.715,-371.257 881.574,-370.242"/>
<polygon fill="black" stroke="black" points="881.652,-366.742 871.532,-369.879 881.4,-373.738 881.652,-366.742"/>
<text text-anchor="middle" x="904.25" y="-373.8" font-family="Times,serif" font-size="14.00">0.04</text>
</g>
<!-- 2&#45;&gt;5 -->
<g id="edge170" class="edge"><title>2-&gt;5</title>
<path fill="none" stroke="black" stroke-width="0.1" d="M873.873,-380.824C927.481,-384.735 1051.38,-395.141 1154,-414 1185.81,-419.845 1192.89,-425.16 1224.5,-432 1280.15,-444.043 1345.32,-455.046 1384.86,-461.382"/>
<polygon fill="black" stroke="black" points="1384.39,-464.852 1394.82,-462.966 1385.49,-457.939 1384.39,-464.852"/>
<text text-anchor="middle" x="1237.25" y="-418.8" font-family="Times,serif" font-size="14.00">0.01</text>
</g>
<!-- 2&#45;&gt;4 -->
<g id="edge172" class="edge"><title>2-&gt;4</title>
<path fill="none" stroke="black" stroke-width="0.4" d="M873.977,-380.168C944.007,-383.4 1137.27,-393.605 1297,-414 1387.46,-425.55 1409.84,-430.832 1499,-450 1594.9,-470.618 1623.01,-464.966 1713,-504 1726.57,-509.887 1728.41,-514.225 1741,-522 1750.83,-528.072 1761.68,-534.567 1771.37,-540.293"/>
<polygon fill="black" stroke="black" points="1769.83,-543.452 1780.23,-545.509 1773.38,-537.42 1769.83,-543.452"/>
<text text-anchor="middle" x="1678.25" y="-463.8" font-family="Times,serif" font-size="14.00">0.04</text>
</g>
<!-- 2&#45;&gt;7 -->
<g id="edge174" class="edge"><title>2-&gt;7</title>
<path fill="none" stroke="black" stroke-width="0" d="M873.581,-381.97C900.865,-385.953 943.769,-394.877 976,-414 1080.89,-476.232 1067.6,-539.949 1166,-612 1177.84,-620.669 1192.16,-628.196 1204.82,-634.025"/>
<polygon fill="black" stroke="black" points="1203.56,-637.292 1214.12,-638.142 1206.39,-630.892 1203.56,-637.292"/>
<text text-anchor="middle" x="1090.75" y="-508.8" font-family="Times,serif" font-size="14.00">0.0</text>
</g>
<!-- 2&#45;&gt;6 -->
<g id="edge176" class="edge"><title>2-&gt;6</title>
<path fill="none" stroke="black" stroke-width="0.2" d="M862.402,-393.021C869.156,-399.308 877.101,-406.896 884,-414 951.217,-483.213 952.379,-516.72 1028.5,-576 1142.76,-664.982 1187.07,-673.21 1329,-702 1391.35,-714.647 1410.36,-700.762 1471,-720 1472.05,-720.333 1473.1,-720.7 1474.16,-721.094"/>
<polygon fill="black" stroke="black" points="1472.96,-724.388 1483.52,-725.227 1475.78,-717.985 1472.96,-724.388"/>
<text text-anchor="middle" x="1041.25" y="-553.8" font-family="Times,serif" font-size="14.00">0.02</text>
</g>
<!-- 2&#45;&gt;9 -->
<g id="edge178" class="edge"><title>2-&gt;9</title>
<path fill="none" stroke="black" stroke-width="3.6" d="M849.487,-396.276C853.021,-417.94 860.605,-455.892 874,-486 915.985,-580.37 929.045,-618.96 1021,-666 1105.67,-709.312 1336.24,-776.049 1430,-792 1636.52,-827.136 1692.55,-789.221 1901,-810 1924.16,-812.309 1949.96,-816.464 1970.2,-820.089"/>
<polygon fill="black" stroke="black" points="1969.76,-823.567 1980.23,-821.923 1971.02,-816.681 1969.76,-823.567"/>
<text text-anchor="middle" x="956.25" y="-598.8" font-family="Times,serif" font-size="14.00">0.36</text>
</g>
<!-- 2&#45;&gt;8 -->
<g id="edge180" class="edge"><title>2-&gt;8</title>
<path fill="none" stroke="black" stroke-width="0" d="M842.998,-395.999C841.82,-401.689 840.668,-408.089 840,-414 836.405,-445.8 837.758,-454.021 839,-486 845.338,-649.222 847.789,-696.236 913,-846 920.307,-862.782 919.326,-869.833 933,-882 947.02,-894.475 966.095,-902.874 982.623,-908.31"/>
<polygon fill="black" stroke="black" points="981.931,-911.758 992.517,-911.322 983.969,-905.061 981.931,-911.758"/>
<text text-anchor="middle" x="861.75" y="-643.8" font-family="Times,serif" font-size="14.00">0.0</text>
</g>
<!-- 5&#45;&gt;11 -->
<g id="edge182" class="edge"><title>5-&gt;11</title>
<path fill="none" stroke="black" stroke-width="0.3" d="M1394.38,-471.804C1361.09,-475.281 1302.36,-481.32 1252,-486 1205.14,-490.355 1084.51,-486.062 1041,-504 1017.96,-513.501 1015.3,-522.061 998,-540 983.927,-554.588 984.787,-562.136 970,-576 949.227,-595.477 943.01,-600.409 917,-612 886.477,-625.602 874.163,-615.617 844,-630 764.021,-668.137 513.386,-796.07 535,-882 591.39,-1106.19 795.252,-1022.36 1023,-1062 1176.38,-1088.7 1362.38,-1095.03 1440.55,-1096.53"/>
<polygon fill="black" stroke="black" points="1440.79,-1100.04 1450.85,-1096.71 1440.92,-1093.04 1440.79,-1100.04"/>
<text text-anchor="middle" x="615.25" y="-778.8" font-family="Times,serif" font-size="14.00">0.03</text>
</g>
<!-- 5&#45;&gt;10 -->
<g id="edge184" class="edge"><title>5-&gt;10</title>
<path fill="none" stroke="black" stroke-width="0.1" d="M1393.92,-470.895C1338.32,-475.689 1208.42,-491.591 1112,-540 926.783,-632.996 670.427,-716.364 795,-882 846.997,-951.136 896.748,-921.32 982,-936 1113.64,-958.667 1151.16,-927.104 1282,-954 1305.13,-958.756 1309.12,-966.127 1332,-972 1395.92,-988.411 1472.33,-998.454 1516.5,-1003.35"/>
<polygon fill="black" stroke="black" points="1516.16,-1006.84 1526.48,-1004.43 1516.91,-999.878 1516.16,-1006.84"/>
<text text-anchor="middle" x="808.25" y="-733.8" font-family="Times,serif" font-size="14.00">0.01</text>
</g>
<!-- 5&#45;&gt;12 -->
<g id="edge186" class="edge"><title>5-&gt;12</title>
<path fill="none" stroke="black" stroke-width="5.5" d="M1396.5,-460.362C1366.41,-450.965 1315.83,-430.917 1287,-396 1249.32,-350.374 1291.13,-305.776 1244,-270 1215.86,-248.636 961.577,-256.261 926.5,-252 710.816,-225.797 611.516,-302.75 446,-162 413.029,-133.963 417.357,-78.3801 423.6,-45.3764"/>
<polygon fill="black" stroke="black" points="428.325,-46.288 425.649,-35.5178 418.902,-44.329 428.325,-46.288"/>
<text text-anchor="middle" x="939.25" y="-238.8" font-family="Times,serif" font-size="14.00">0.55</text>
</g>
<!-- 5&#45;&gt;1 -->
<g id="edge188" class="edge"><title>5-&gt;1</title>
<path fill="none" stroke="black" stroke-width="0.5" d="M1437.59,-453.675C1467.37,-428.554 1528.95,-370.852 1552,-306 1557.36,-290.924 1557.45,-285.044 1552,-270 1548.45,-260.208 1540.55,-261.792 1537,-252 1528.57,-228.718 1552.56,-181.765 1554,-180 1574.89,-154.426 1587.71,-154.554 1619,-144 1688.18,-120.667 1773.74,-112.885 1821.76,-110.292"/>
<polygon fill="black" stroke="black" points="1822.18,-113.777 1831.99,-109.789 1821.83,-106.785 1822.18,-113.777"/>
<text text-anchor="middle" x="1569.25" y="-283.8" font-family="Times,serif" font-size="14.00">0.05</text>
</g>
<!-- 5&#45;&gt;0 -->
<g id="edge190" class="edge"><title>5-&gt;0</title>
<path fill="none" stroke="black" stroke-width="0" d="M1445.86,-460.511C1460.15,-456.976 1478.49,-452.771 1495,-450 1569.06,-437.571 1592.18,-456.975 1663,-432 1676.95,-427.08 1678.07,-421.181 1691,-414 1707.34,-404.928 1712.95,-405.576 1729,-396 1752.21,-382.153 1752.98,-370.204 1778,-360 1830.79,-338.473 1860.47,-377.597 1905,-342 1945.1,-309.941 1906.42,-266.706 1946,-234 1970.23,-213.98 2057.74,-204.869 2108.62,-201.182"/>
<polygon fill="black" stroke="black" points="2109.15,-204.654 2118.89,-200.476 2108.67,-197.671 2109.15,-204.654"/>
<text text-anchor="middle" x="1928.75" y="-328.8" font-family="Times,serif" font-size="14.00">0.0</text>
</g>
<!-- 5&#45;&gt;3 -->
<g id="edge192" class="edge"><title>5-&gt;3</title>
<path fill="none" stroke="black" stroke-width="1.1" d="M1403.89,-453.77C1385.63,-439.598 1355.87,-416.389 1330.5,-396 1291.24,-364.455 1285.73,-350.648 1243,-324 1229.03,-315.288 1212.53,-307.493 1198.39,-301.484"/>
<polygon fill="black" stroke="black" points="1199.62,-298.205 1189.04,-297.619 1196.94,-304.674 1199.62,-298.205"/>
<text text-anchor="middle" x="1343.25" y="-373.8" font-family="Times,serif" font-size="14.00">0.11</text>
</g>
<!-- 5&#45;&gt;2 -->
<g id="edge194" class="edge"><title>5-&gt;2</title>
<path fill="none" stroke="black" stroke-width="0.2" d="M1394.4,-464.156C1363.79,-460.12 1312.59,-451 1272.5,-432 1260.61,-426.366 1261.26,-418.76 1249,-414 1183.01,-388.388 970.728,-381.402 884.217,-379.596"/>
<polygon fill="black" stroke="black" points="884.136,-376.093 874.069,-379.395 883.998,-383.092 884.136,-376.093"/>
<text text-anchor="middle" x="1285.25" y="-418.8" font-family="Times,serif" font-size="14.00">0.02</text>
</g>
<!-- 5&#45;&gt;5 -->
<g id="edge196" class="edge"><title>5-&gt;5</title>
<path fill="none" stroke="black" stroke-width="0.3" d="M1445.53,-476.121C1456.51,-476.895 1466,-474.188 1466,-468 1466,-463.843 1461.72,-461.257 1455.57,-460.242"/>
<polygon fill="black" stroke="black" points="1455.65,-456.742 1445.53,-459.879 1455.4,-463.738 1455.65,-456.742"/>
<text text-anchor="middle" x="1478.25" y="-463.8" font-family="Times,serif" font-size="14.00">0.03</text>
</g>
<!-- 5&#45;&gt;4 -->
<g id="edge198" class="edge"><title>5-&gt;4</title>
<path fill="none" stroke="black" stroke-width="0.1" d="M1447.64,-471.547C1489.22,-475.904 1571.85,-486.095 1640,-504 1662.24,-509.843 1666.75,-514.555 1688.5,-522 1714.3,-530.831 1743.75,-540.037 1765.9,-546.79"/>
<polygon fill="black" stroke="black" points="1764.94,-550.156 1775.52,-549.71 1766.97,-543.458 1764.94,-550.156"/>
<text text-anchor="middle" x="1701.25" y="-508.8" font-family="Times,serif" font-size="14.00">0.01</text>
</g>
<!-- 5&#45;&gt;7 -->
<g id="edge200" class="edge"><title>5-&gt;7</title>
<path fill="none" stroke="black" stroke-width="0" d="M1419.74,-486.113C1417.44,-512.879 1411.67,-562.944 1400,-576 1382.3,-595.808 1367.62,-584.029 1343,-594 1316.37,-604.782 1287.26,-619.568 1266.3,-630.783"/>
<polygon fill="black" stroke="black" points="1264.41,-627.825 1257.27,-635.658 1267.74,-633.983 1264.41,-627.825"/>
<text text-anchor="middle" x="1421.75" y="-553.8" font-family="Times,serif" font-size="14.00">0.0</text>
</g>
<!-- 5&#45;&gt;6 -->
<g id="edge202" class="edge"><title>5-&gt;6</title>
<path fill="none" stroke="black" stroke-width="0.3" d="M1432.35,-484.546C1441.76,-496.382 1456.11,-512.249 1472,-522 1495.37,-536.338 1514.69,-517.967 1531,-540 1540.52,-552.859 1540.14,-562.865 1531,-576 1517.87,-594.876 1502.71,-583.038 1482.5,-594 1458.9,-606.798 1446.06,-606.019 1434,-630 1426.81,-644.293 1425.03,-652.751 1434,-666 1446.08,-683.837 1463.43,-669.113 1479,-684 1486.4,-691.075 1491.7,-700.854 1495.41,-710.088"/>
<polygon fill="black" stroke="black" points="1492.19,-711.482 1498.82,-719.74 1498.79,-709.145 1492.19,-711.482"/>
<text text-anchor="middle" x="1495.25" y="-598.8" font-family="Times,serif" font-size="14.00">0.03</text>
</g>
<!-- 5&#45;&gt;9 -->
<g id="edge204" class="edge"><title>5-&gt;9</title>
<path fill="none" stroke="black" stroke-width="1.5" d="M1445.83,-475.652C1460.11,-479.239 1478.46,-483.443 1495,-486 1664.89,-512.26 1719.56,-473.312 1878,-540 1963.77,-576.1 2003.61,-594.763 2030,-684 2043.66,-730.189 2033.02,-745.358 2021,-792 2020.22,-795.039 2019.21,-798.154 2018.08,-801.213"/>
<polygon fill="black" stroke="black" points="2014.78,-800.048 2014.24,-810.63 2021.26,-802.694 2014.78,-800.048"/>
<text text-anchor="middle" x="2036.25" y="-643.8" font-family="Times,serif" font-size="14.00">0.15</text>
</g>
<!-- 5&#45;&gt;8 -->
<g id="edge206" class="edge"><title>5-&gt;8</title>
<path fill="none" stroke="black" stroke-width="0" d="M1394.37,-471.706C1361.07,-475.083 1302.33,-481.02 1252,-486 1210.9,-490.067 1102.73,-483.271 1067,-504 1024.6,-528.6 954.367,-637.291 939.5,-684 912.791,-767.915 898.944,-808.205 947,-882 955.207,-894.603 969.372,-902.827 982.902,-908.112"/>
<polygon fill="black" stroke="black" points="981.952,-911.488 992.547,-911.463 984.249,-904.875 981.952,-911.488"/>
<text text-anchor="middle" x="948.75" y="-688.8" font-family="Times,serif" font-size="14.00">0.0</text>
</g>
<!-- 4&#45;&gt;11 -->
<g id="edge208" class="edge"><title>4-&gt;11</title>
<path fill="none" stroke="black" stroke-width="0.3" d="M1813.92,-573.781C1818.92,-579.709 1824.25,-586.83 1828,-594 1870.58,-675.355 1849.64,-708.122 1887,-792 1909.89,-843.386 1937.76,-845.849 1953,-900 1957.33,-915.402 1959.35,-921.314 1953,-936 1920.56,-1011.04 1893.36,-1028.04 1819,-1062 1812.13,-1065.14 1601.67,-1085.31 1514.87,-1093.53"/>
<polygon fill="black" stroke="black" points="1514.31,-1090.07 1504.68,-1094.49 1514.97,-1097.03 1514.31,-1090.07"/>
<text text-anchor="middle" x="1936.25" y="-823.8" font-family="Times,serif" font-size="14.00">0.03</text>
</g>
<!-- 4&#45;&gt;10 -->
<g id="edge210" class="edge"><title>4-&gt;10</title>
<path fill="none" stroke="black" stroke-width="0.5" d="M1806.87,-575.446C1808.95,-581.208 1810.95,-587.792 1812,-594 1841.68,-770.06 1814.99,-878.804 1813,-882 1763.68,-961.216 1648.43,-991.337 1589.35,-1001.87"/>
<polygon fill="black" stroke="black" points="1588.61,-998.439 1579.34,-1003.56 1589.78,-1005.34 1588.61,-998.439"/>
<text text-anchor="middle" x="1838.25" y="-778.8" font-family="Times,serif" font-size="14.00">0.05</text>
</g>
<!-- 4&#45;&gt;12 -->
<g id="edge212" class="edge"><title>4-&gt;12</title>
<path fill="none" stroke="black" stroke-width="1.3" d="M1825.52,-551.816C1854.01,-545.767 1901.31,-534.925 1941,-522 2021.75,-495.703 2035.81,-471.381 2118,-450 2181.27,-433.54 2200.6,-447.968 2264,-432 2290.76,-425.26 2701.65,-262.914 2727,-252 2761.33,-237.219 2783.01,-247.583 2803,-216 2811.56,-202.48 2813.58,-192.007 2803,-180 2593.64,57.7035 2410.85,-124.75 2096,-90 1925.18,-71.1463 1882.55,-64.3525 1711,-54 1264.45,-27.0512 729.066,-20.8436 519.912,-19.4205"/>
<polygon fill="black" stroke="black" points="519.923,-15.9206 509.9,-19.3543 519.877,-22.9204 519.923,-15.9206"/>
<text text-anchor="middle" x="2694.25" y="-283.8" font-family="Times,serif" font-size="14.00">0.13</text>
</g>
<!-- 4&#45;&gt;1 -->
<g id="edge214" class="edge"><title>4-&gt;1</title>
<path fill="none" stroke="black" stroke-width="3" d="M1815.82,-543.364C1822.66,-537.148 1830.54,-529.51 1837,-522 1877.81,-474.522 1887.58,-457.365 1900,-396 1903.17,-380.318 1909.37,-372.967 1900,-360 1885.06,-339.326 1860.44,-362.674 1845.5,-342 1800.28,-279.436 1829.84,-180.945 1847.93,-134.653"/>
<polygon fill="black" stroke="black" points="1851.19,-135.925 1851.69,-125.341 1844.7,-133.303 1851.19,-135.925"/>
<text text-anchor="middle" x="1854.75" y="-328.8" font-family="Times,serif" font-size="14.00">0.3</text>
</g>
<!-- 4&#45;&gt;0 -->
<g id="edge216" class="edge"><title>4-&gt;0</title>
<path fill="none" stroke="black" stroke-width="0.5" d="M1808.09,-540.703C1825.9,-505.674 1870.92,-421.412 1921.5,-360 1929,-350.896 1932.87,-350.549 1941,-342 1969.7,-311.809 1970.52,-298.395 2001,-270 2021.04,-251.334 2026.82,-246.851 2051,-234 2070.25,-223.769 2093.15,-215.236 2111.64,-209.157"/>
<polygon fill="black" stroke="black" points="2112.95,-212.414 2121.41,-206.037 2110.82,-205.746 2112.95,-212.414"/>
<text text-anchor="middle" x="1934.25" y="-373.8" font-family="Times,serif" font-size="14.00">0.05</text>
</g>
<!-- 4&#45;&gt;3 -->
<g id="edge218" class="edge"><title>4-&gt;3</title>
<path fill="none" stroke="black" stroke-width="1.7" d="M1792.9,-540.48C1778.19,-508.73 1741.06,-440.03 1685,-414 1636.09,-391.287 1614.3,-417.858 1565,-396 1541.9,-385.759 1541.11,-375.295 1521,-360 1498.92,-343.205 1496.07,-333.49 1470,-324 1379.89,-291.201 1350,-319.013 1255,-306 1237.23,-303.566 1217.63,-299.927 1201.36,-296.641"/>
<polygon fill="black" stroke="black" points="1201.7,-293.137 1191.2,-294.548 1200.29,-299.993 1201.7,-293.137"/>
<text text-anchor="middle" x="1725.25" y="-418.8" font-family="Times,serif" font-size="14.00">0.17</text>
</g>
<!-- 4&#45;&gt;2 -->
<g id="edge220" class="edge"><title>4-&gt;2</title>
<path fill="none" stroke="black" stroke-width="0.5" d="M1772.92,-555.827C1666.33,-551.135 1280.4,-533.425 1257,-522 1218.53,-503.213 1228.93,-473.285 1193,-450 1170.71,-435.552 1104.88,-420 1079,-414 1010.89,-398.211 929.83,-387.861 883.795,-382.754"/>
<polygon fill="black" stroke="black" points="884.017,-379.258 873.697,-381.656 883.26,-386.217 884.017,-379.258"/>
<text text-anchor="middle" x="1236.25" y="-463.8" font-family="Times,serif" font-size="14.00">0.05</text>
</g>
<!-- 4&#45;&gt;5 -->
<g id="edge222" class="edge"><title>4-&gt;5</title>
<path fill="none" stroke="black" stroke-width="0.1" d="M1773.34,-554.672C1720.45,-549.783 1604.23,-537.594 1567.5,-522 1555.39,-516.858 1555.76,-509.905 1544,-504 1516.27,-490.075 1482.17,-480.923 1456.91,-475.483"/>
<polygon fill="black" stroke="black" points="1457.51,-472.034 1447.01,-473.443 1456.1,-478.89 1457.51,-472.034"/>
<text text-anchor="middle" x="1580.25" y="-508.8" font-family="Times,serif" font-size="14.00">0.01</text>
</g>
<!-- 4&#45;&gt;4 -->
<g id="edge224" class="edge"><title>4-&gt;4</title>
<path fill="none" stroke="black" stroke-width="0.5" d="M1824.53,-566.121C1835.51,-566.895 1845,-564.188 1845,-558 1845,-553.843 1840.72,-551.257 1834.57,-550.242"/>
<polygon fill="black" stroke="black" points="1834.65,-546.742 1824.53,-549.879 1834.4,-553.738 1834.65,-546.742"/>
<text text-anchor="middle" x="1857.25" y="-553.8" font-family="Times,serif" font-size="14.00">0.05</text>
</g>
<!-- 4&#45;&gt;7 -->
<g id="edge226" class="edge"><title>4-&gt;7</title>
<path fill="none" stroke="black" stroke-width="0.1" d="M1774.75,-564.509C1759.25,-567.872 1738.99,-572.235 1721,-576 1681.71,-584.222 1671.64,-585.098 1632.5,-594 1600.55,-601.268 1593.26,-606.226 1561,-612 1458.03,-630.431 1334.78,-640.496 1274.27,-644.665"/>
<polygon fill="black" stroke="black" points="1273.8,-641.189 1264.06,-645.353 1274.28,-648.173 1273.8,-641.189"/>
<text text-anchor="middle" x="1645.25" y="-598.8" font-family="Times,serif" font-size="14.00">0.01</text>
</g>
<!-- 4&#45;&gt;6 -->
<g id="edge228" class="edge"><title>4-&gt;6</title>
<path fill="none" stroke="black" stroke-width="0.4" d="M1777.97,-568.419C1771.85,-570.955 1765.19,-573.646 1759,-576 1736.14,-584.688 1730.06,-585.858 1707,-594 1684.73,-601.863 1679.86,-606.076 1657,-612 1608.83,-624.48 1583.01,-596.195 1546.5,-630 1522.34,-652.373 1542.99,-672.186 1529,-702 1527.12,-706.009 1524.74,-710.013 1522.19,-713.806"/>
<polygon fill="black" stroke="black" points="1519.15,-712.034 1516.08,-722.173 1524.8,-716.163 1519.15,-712.034"/>
<text text-anchor="middle" x="1559.25" y="-643.8" font-family="Times,serif" font-size="14.00">0.04</text>
</g>
<!-- 4&#45;&gt;9 -->
<g id="edge230" class="edge"><title>4-&gt;9</title>
<path fill="none" stroke="black" stroke-width="1.2" d="M1825.81,-563.29C1860.19,-570.493 1920.05,-588.529 1949,-630 1958.87,-644.139 1986.44,-749.687 1999.27,-800.205"/>
<polygon fill="black" stroke="black" points="1995.93,-801.261 2001.78,-810.097 2002.72,-799.544 1995.93,-801.261"/>
<text text-anchor="middle" x="1985.25" y="-688.8" font-family="Times,serif" font-size="14.00">0.12</text>
</g>
<!-- 4&#45;&gt;8 -->
<g id="edge232" class="edge"><title>4-&gt;8</title>
<path fill="none" stroke="black" stroke-width="0.1" d="M1792.88,-575.4C1776.44,-611.737 1732.72,-700.214 1674,-756 1615.41,-811.663 1590.83,-815.471 1516,-846 1353.93,-912.122 1140.38,-918.228 1055.3,-917.763"/>
<polygon fill="black" stroke="black" points="1055.14,-914.261 1045.1,-917.671 1055.07,-921.261 1055.14,-914.261"/>
<text text-anchor="middle" x="1719.25" y="-733.8" font-family="Times,serif" font-size="14.00">0.01</text>
</g>
<!-- 7&#45;&gt;11 -->
<g id="edge234" class="edge"><title>7-&gt;11</title>
<path fill="none" stroke="black" stroke-width="0.1" d="M1239.42,-665.992C1248.91,-731.004 1284.98,-963.451 1324,-1026 1349.35,-1066.64 1404.68,-1084.3 1441.65,-1091.78"/>
<polygon fill="black" stroke="black" points="1441.07,-1095.23 1451.55,-1093.63 1442.36,-1088.35 1441.07,-1095.23"/>
<text text-anchor="middle" x="1290.25" y="-868.8" font-family="Times,serif" font-size="14.00">0.01</text>
</g>
<!-- 7&#45;&gt;10 -->
<g id="edge236" class="edge"><title>7-&gt;10</title>
<path fill="none" stroke="black" stroke-width="0.3" d="M1250.57,-663.995C1260.33,-674.689 1273.84,-689.354 1286,-702 1309.53,-726.466 1315.68,-732.326 1340,-756 1406.68,-820.907 1434.56,-826.787 1492,-900 1512.12,-925.645 1529.91,-958.689 1541.01,-981.227"/>
<polygon fill="black" stroke="black" points="1537.98,-983.004 1545.48,-990.485 1544.28,-979.958 1537.98,-983.004"/>
<text text-anchor="middle" x="1456.25" y="-823.8" font-family="Times,serif" font-size="14.00">0.03</text>
</g>
<!-- 7&#45;&gt;12 -->
<g id="edge238" class="edge"><title>7-&gt;12</title>
<path fill="none" stroke="black" stroke-width="4.9" d="M1210.34,-644.283C1156.53,-638.736 1031.09,-625.489 926,-612 891.26,-607.541 332.714,-538.835 302,-522 205.279,-468.986 140,-444.297 140,-334 140,-334 140,-334 140,-107 140,-60.4226 278.715,-36.1794 364.271,-25.6564"/>
<polygon fill="black" stroke="black" points="365.009,-29.8863 374.428,-24.4405 363.989,-21.3721 365.009,-29.8863"/>
<text text-anchor="middle" x="153.25" y="-328.8" font-family="Times,serif" font-size="14.00">0.49</text>
</g>
<!-- 7&#45;&gt;1 -->
<g id="edge240" class="edge"><title>7-&gt;1</title>
<path fill="none" stroke="black" stroke-width="0.3" d="M1261.64,-640.027C1282.44,-633.773 1312.78,-623.781 1338,-612 1352.09,-605.419 1353.7,-600.103 1368,-594 1395.96,-582.067 1408.54,-592.618 1434,-576 1464.17,-556.31 1504.48,-467.437 1536,-450 1594.37,-417.714 1632.1,-472.629 1685,-432 1780.7,-358.507 1731.91,-287.856 1786,-180 1794.41,-163.239 1795.1,-157.605 1808,-144 1814.37,-137.28 1822.24,-131.115 1829.87,-125.894"/>
<polygon fill="black" stroke="black" points="1832.13,-128.6 1838.62,-120.222 1828.33,-122.726 1832.13,-128.6"/>
<text text-anchor="middle" x="1753.25" y="-373.8" font-family="Times,serif" font-size="14.00">0.03</text>
</g>
<!-- 7&#45;&gt;0 -->
<g id="edge242" class="edge"><title>7-&gt;0</title>
<path fill="none" stroke="black" stroke-width="0" d="M1264.09,-646.95C1310.84,-646.051 1409.06,-640.565 1486,-612 1499.87,-606.851 1500.05,-598.916 1514,-594 1585.24,-568.901 1610.88,-598.462 1683,-576 1746.99,-556.07 1891.42,-467.924 1948,-432 1970.81,-417.515 1977.76,-414.975 1997,-396 2053.25,-340.527 2105.71,-262.871 2130.7,-223.689"/>
<polygon fill="black" stroke="black" points="2133.78,-225.361 2136.17,-215.038 2127.86,-221.621 2133.78,-225.361"/>
<text text-anchor="middle" x="1985.75" y="-418.8" font-family="Times,serif" font-size="14.00">0.0</text>
</g>
<!-- 7&#45;&gt;3 -->
<g id="edge244" class="edge"><title>7-&gt;3</title>
<path fill="none" stroke="black" stroke-width="2" d="M1223.35,-632.035C1199.95,-605.205 1153.21,-546.084 1137.5,-486 1121.84,-426.101 1142.06,-353.557 1155.61,-315.403"/>
<polygon fill="black" stroke="black" points="1159.05,-316.186 1159.21,-305.593 1152.48,-313.77 1159.05,-316.186"/>
<text text-anchor="middle" x="1146.75" y="-463.8" font-family="Times,serif" font-size="14.00">0.2</text>
</g>
<!-- 7&#45;&gt;2 -->
<g id="edge246" class="edge"><title>7-&gt;2</title>
<path fill="none" stroke="black" stroke-width="0.2" d="M1212.41,-639.963C1192.75,-633.866 1164.82,-624.126 1142,-612 1117.82,-599.149 1112.63,-594.002 1092,-576 1017.14,-510.693 1020.6,-469.182 938,-414 920.939,-402.603 899.634,-394.152 881.928,-388.413"/>
<polygon fill="black" stroke="black" points="882.565,-384.947 871.978,-385.345 880.503,-391.636 882.565,-384.947"/>
<text text-anchor="middle" x="1053.25" y="-508.8" font-family="Times,serif" font-size="14.00">0.02</text>
</g>
<!-- 7&#45;&gt;5 -->
<g id="edge248" class="edge"><title>7-&gt;5</title>
<path fill="none" stroke="black" stroke-width="0.3" d="M1251.75,-632.734C1283.91,-601.619 1360.54,-527.492 1398.66,-490.61"/>
<polygon fill="black" stroke="black" points="1401.43,-492.802 1406.18,-483.334 1396.56,-487.771 1401.43,-492.802"/>
<text text-anchor="middle" x="1360.25" y="-553.8" font-family="Times,serif" font-size="14.00">0.03</text>
</g>
<!-- 7&#45;&gt;4 -->
<g id="edge250" class="edge"><title>7-&gt;4</title>
<path fill="none" stroke="black" stroke-width="0.2" d="M1263.84,-645.493C1323.83,-641.817 1466.95,-631.253 1511,-612 1522.42,-607.009 1521,-598.808 1532.5,-594 1610.14,-561.529 1637.83,-588.874 1721,-576 1735.47,-573.76 1751.28,-570.52 1764.92,-567.468"/>
<polygon fill="black" stroke="black" points="1765.91,-570.832 1774.88,-565.19 1764.35,-564.009 1765.91,-570.832"/>
<text text-anchor="middle" x="1545.25" y="-598.8" font-family="Times,serif" font-size="14.00">0.02</text>
</g>
<!-- 7&#45;&gt;7 -->
<g id="edge252" class="edge"><title>7-&gt;7</title>
<path fill="none" stroke="black" stroke-width="0.2" d="M1261.53,-656.121C1272.51,-656.895 1282,-654.188 1282,-648 1282,-643.843 1277.72,-641.257 1271.57,-640.242"/>
<polygon fill="black" stroke="black" points="1271.65,-636.742 1261.53,-639.879 1271.4,-643.738 1271.65,-636.742"/>
<text text-anchor="middle" x="1294.25" y="-643.8" font-family="Times,serif" font-size="14.00">0.02</text>
</g>
<!-- 7&#45;&gt;6 -->
<g id="edge254" class="edge"><title>7-&gt;6</title>
<path fill="none" stroke="black" stroke-width="0.2" d="M1262.61,-653.898C1298.1,-660.913 1360.23,-674.067 1381,-684 1392.87,-689.675 1392.84,-695.913 1404.5,-702 1427.86,-714.194 1436.21,-711.049 1461,-720 1464.28,-721.185 1467.69,-722.469 1471.07,-723.783"/>
<polygon fill="black" stroke="black" points="1469.87,-727.07 1480.45,-727.506 1472.45,-720.564 1469.87,-727.07"/>
<text text-anchor="middle" x="1417.25" y="-688.8" font-family="Times,serif" font-size="14.00">0.02</text>
</g>
<!-- 7&#45;&gt;9 -->
<g id="edge256" class="edge"><title>7-&gt;9</title>
<path fill="none" stroke="black" stroke-width="1.3" d="M1254.41,-661.967C1269.27,-672.907 1291.28,-688.842 1311,-702 1323.62,-710.421 1327.54,-711.345 1340,-720 1361.47,-734.912 1362.5,-745.641 1386.5,-756 1597.59,-847.129 1672.51,-784.375 1901,-810 1924.13,-812.594 1949.93,-816.754 1970.17,-820.31"/>
<polygon fill="black" stroke="black" points="1969.75,-823.789 1980.21,-822.102 1970.98,-816.898 1969.75,-823.789"/>
<text text-anchor="middle" x="1399.25" y="-733.8" font-family="Times,serif" font-size="14.00">0.13</text>
</g>
<!-- 7&#45;&gt;8 -->
<g id="edge258" class="edge"><title>7-&gt;8</title>
<path fill="none" stroke="black" stroke-width="0.1" d="M1209.92,-650.101C1159.37,-652.688 1053.31,-660.8 1026,-684 966.531,-734.52 992.094,-841.089 1008.34,-890.637"/>
<polygon fill="black" stroke="black" points="1005.1,-891.967 1011.64,-900.304 1011.73,-889.71 1005.1,-891.967"/>
<text text-anchor="middle" x="1001.25" y="-778.8" font-family="Times,serif" font-size="14.00">0.01</text>
</g>
<!-- 6&#45;&gt;11 -->
<g id="edge260" class="edge"><title>6-&gt;11</title>
<path fill="none" stroke="black" stroke-width="0.3" d="M1482.47,-749.871C1453.54,-765.499 1402.77,-794.168 1389,-810 1343.03,-862.838 1339.54,-885.489 1325,-954 1311.12,-1019.38 1396.08,-1064.6 1445.07,-1084.9"/>
<polygon fill="black" stroke="black" points="1444.06,-1088.27 1454.64,-1088.74 1446.67,-1081.77 1444.06,-1088.27"/>
<text text-anchor="middle" x="1350.25" y="-913.8" font-family="Times,serif" font-size="14.00">0.03</text>
</g>
<!-- 6&#45;&gt;10 -->
<g id="edge262" class="edge"><title>6-&gt;10</title>
<path fill="none" stroke="black" stroke-width="0.3" d="M1506.18,-756.029C1514.61,-801.246 1537.63,-924.624 1547.92,-979.755"/>
<polygon fill="black" stroke="black" points="1544.52,-980.639 1549.8,-989.828 1551.4,-979.355 1544.52,-980.639"/>
<text text-anchor="middle" x="1542.25" y="-868.8" font-family="Times,serif" font-size="14.00">0.03</text>
</g>
<!-- 6&#45;&gt;12 -->
<g id="edge264" class="edge"><title>6-&gt;12</title>
<path fill="none" stroke="black" stroke-width="1.9" d="M1483.93,-725.163C1479.8,-723.093 1475.36,-721.217 1471,-720 1401.54,-700.633 1218.8,-708.736 1147,-702 1086.3,-696.305 1071.54,-691.268 1011,-684 936.88,-675.102 913.326,-693.693 844,-666 772.305,-637.361 292,-321.203 292,-244 292,-244 292,-244 292,-107 292,-64.564 338.965,-41.6915 378.098,-29.9988"/>
<polygon fill="black" stroke="black" points="379.164,-33.3351 387.846,-27.2619 377.272,-26.5957 379.164,-33.3351"/>
<text text-anchor="middle" x="447.25" y="-373.8" font-family="Times,serif" font-size="14.00">0.19</text>
</g>
<!-- 6&#45;&gt;1 -->
<g id="edge266" class="edge"><title>6-&gt;1</title>
<path fill="none" stroke="black" d="M1527.46,-730.175C1541.78,-726.484 1560.28,-722.234 1577,-720 1626.93,-713.332 1984.05,-722.632 2030,-702 2151.12,-647.622 2379.41,-377.409 2423,-252 2459.91,-145.8 2043.86,-144.715 1933,-126 1920.1,-123.823 1906.09,-120.78 1893.76,-117.869"/>
<polygon fill="black" stroke="black" points="1894.4,-114.424 1883.86,-115.477 1892.76,-121.228 1894.4,-114.424"/>
<text text-anchor="middle" x="2335.75" y="-418.8" font-family="Times,serif" font-size="14.00">0.1</text>
</g>
<!-- 6&#45;&gt;0 -->
<g id="edge268" class="edge"><title>6-&gt;0</title>
<path fill="none" stroke="black" stroke-width="0.1" d="M1528.1,-731.238C1598.48,-715.072 1793.44,-670.191 1807,-666 1859.83,-649.671 1994.64,-609.02 2039,-576 2143.21,-498.425 2147.4,-435.865 2151,-306 2151.89,-274.012 2153.27,-265.919 2151,-234 2150.82,-231.428 2150.56,-228.759 2150.26,-226.092"/>
<polygon fill="black" stroke="black" points="2153.71,-225.493 2148.93,-216.038 2146.77,-226.41 2153.71,-225.493"/>
<text text-anchor="middle" x="2148.25" y="-463.8" font-family="Times,serif" font-size="14.00">0.01</text>
</g>
<!-- 6&#45;&gt;3 -->
<g id="edge270" class="edge"><title>6-&gt;3</title>
<path fill="none" stroke="black" stroke-width="1.6" d="M1484.73,-724.277C1460.93,-707.545 1420.85,-678.779 1408,-666 1349.7,-608.006 1222.6,-388.6 1180.14,-314.003"/>
<polygon fill="black" stroke="black" points="1183.15,-312.216 1175.16,-305.25 1177.06,-315.673 1183.15,-312.216"/>
<text text-anchor="middle" x="1316.25" y="-508.8" font-family="Times,serif" font-size="14.00">0.16</text>
</g>
<!-- 6&#45;&gt;2 -->
<g id="edge272" class="edge"><title>6-&gt;2</title>
<path fill="none" stroke="black" stroke-width="0.2" d="M1483.91,-725.239C1479.78,-723.164 1475.35,-721.266 1471,-720 1372.55,-691.347 1342.11,-719.008 1241,-702 1178.49,-691.486 1161.19,-691.131 1103,-666 1033.89,-636.152 1011.62,-630.321 959.5,-576 909.475,-523.865 873.374,-445.285 856.931,-404.935"/>
<polygon fill="black" stroke="black" points="860.138,-403.527 853.178,-395.539 853.637,-406.124 860.138,-403.527"/>
<text text-anchor="middle" x="972.25" y="-553.8" font-family="Times,serif" font-size="14.00">0.02</text>
</g>
<!-- 6&#45;&gt;5 -->
<g id="edge274" class="edge"><title>6-&gt;5</title>
<path fill="none" stroke="black" stroke-width="0.1" d="M1490.72,-721.507C1481.37,-710.303 1467.81,-695.224 1454,-684 1441.93,-674.192 1432.22,-679.201 1424,-666 1407.06,-638.78 1408.84,-624.237 1419.5,-594 1422.92,-584.312 1430.58,-585.688 1434,-576 1439.32,-560.911 1435.45,-555.934 1434,-540 1432.66,-525.229 1429.78,-508.939 1427.07,-495.693"/>
<polygon fill="black" stroke="black" points="1430.47,-494.862 1424.97,-485.809 1423.62,-496.319 1430.47,-494.862"/>
<text text-anchor="middle" x="1432.25" y="-598.8" font-family="Times,serif" font-size="14.00">0.01</text>
</g>
<!-- 6&#45;&gt;4 -->
<g id="edge276" class="edge"><title>6-&gt;4</title>
<path fill="none" stroke="black" stroke-width="0.5" d="M1520.35,-724.046C1528.43,-717.719 1538.01,-709.801 1546,-702 1576.11,-672.597 1571.24,-651.358 1607.5,-630 1642.09,-609.63 1658.11,-625.234 1696,-612 1710.74,-606.853 1745.41,-588.703 1770.68,-575.066"/>
<polygon fill="black" stroke="black" points="1772.39,-578.122 1779.51,-570.279 1769.05,-571.968 1772.39,-578.122"/>
<text text-anchor="middle" x="1620.25" y="-643.8" font-family="Times,serif" font-size="14.00">0.05</text>
</g>
<!-- 6&#45;&gt;7 -->
<g id="edge278" class="edge"><title>6-&gt;7</title>
<path fill="none" stroke="black" stroke-width="0.1" d="M1481.09,-727.07C1474.71,-724.472 1467.66,-721.876 1461,-720 1413.95,-706.75 1396.41,-723.478 1352.5,-702 1341.9,-696.818 1343.07,-690.14 1333,-684 1314,-672.415 1290.57,-663.779 1271.61,-657.984"/>
<polygon fill="black" stroke="black" points="1272.45,-654.585 1261.87,-655.134 1270.49,-661.303 1272.45,-654.585"/>
<text text-anchor="middle" x="1365.25" y="-688.8" font-family="Times,serif" font-size="14.00">0.01</text>
</g>
<!-- 6&#45;&gt;6 -->
<g id="edge280" class="edge"><title>6-&gt;6</title>
<path fill="none" stroke="black" stroke-width="0.4" d="M1527.53,-746.121C1538.51,-746.895 1548,-744.188 1548,-738 1548,-733.843 1543.72,-731.257 1537.57,-730.242"/>
<polygon fill="black" stroke="black" points="1537.65,-726.742 1527.53,-729.879 1537.4,-733.738 1537.65,-726.742"/>
<text text-anchor="middle" x="1560.25" y="-733.8" font-family="Times,serif" font-size="14.00">0.04</text>
</g>
<!-- 6&#45;&gt;9 -->
<g id="edge282" class="edge"><title>6-&gt;9</title>
<path fill="none" stroke="black" stroke-width="3.4" d="M1528.9,-743.125C1553.36,-746.904 1591.1,-752.438 1624,-756 1728.58,-767.323 1757.32,-751.128 1860,-774 1882.04,-778.909 1886.31,-784.22 1907.5,-792 1929.26,-799.989 1953.83,-808.719 1972.99,-815.462"/>
<polygon fill="black" stroke="black" points="1971.87,-818.78 1982.47,-818.792 1974.19,-812.176 1971.87,-818.78"/>
<text text-anchor="middle" x="1920.25" y="-778.8" font-family="Times,serif" font-size="14.00">0.34</text>
</g>
<!-- 6&#45;&gt;8 -->
<g id="edge284" class="edge"><title>6-&gt;8</title>
<path fill="none" stroke="black" stroke-width="0" d="M1481.62,-749.136C1475.13,-751.804 1467.89,-754.385 1461,-756 1318.22,-789.461 1259.55,-731.794 1135.5,-810 1115.13,-822.844 1067.89,-867.934 1039.91,-895.315"/>
<polygon fill="black" stroke="black" points="1037.25,-893.022 1032.57,-902.526 1042.15,-898.017 1037.25,-893.022"/>
<text text-anchor="middle" x="1144.75" y="-823.8" font-family="Times,serif" font-size="14.00">0.0</text>
</g>
<!-- 9&#45;&gt;11 -->
<g id="edge286" class="edge"><title>9-&gt;11</title>
<path fill="none" stroke="black" stroke-width="0.3" d="M2027.21,-839.282C2038.61,-845.451 2052.45,-854.029 2063,-864 2094.68,-893.946 2096.49,-910.756 2102,-954 2109.83,-1015.42 2072.95,-1043.06 2014,-1062 1938.59,-1086.23 1737,-1074.27 1658,-1080 1608.28,-1083.6 1550.97,-1089.28 1514.63,-1093.07"/>
<polygon fill="black" stroke="black" points="1514.08,-1089.61 1504.5,-1094.13 1514.81,-1096.57 1514.08,-1089.61"/>
<text text-anchor="middle" x="2116.25" y="-958.8" font-family="Times,serif" font-size="14.00">0.03</text>
</g>
<!-- 9&#45;&gt;10 -->
<g id="edge288" class="edge"><title>9-&gt;10</title>
<path fill="none" stroke="black" d="M1988.06,-841.779C1942.98,-873.656 1825.41,-955.322 1781,-972 1716.83,-996.098 1636.54,-1003.62 1590.38,-1005.96"/>
<polygon fill="black" stroke="black" points="1590.07,-1002.47 1580.23,-1006.41 1590.38,-1009.46 1590.07,-1002.47"/>
<text text-anchor="middle" x="1910.75" y="-913.8" font-family="Times,serif" font-size="14.00">0.1</text>
</g>
<!-- 9&#45;&gt;12 -->
<g id="edge290" class="edge"><title>9-&gt;12</title>
<path fill="none" stroke="black" stroke-width="1.9" d="M2032.77,-825.437C2095.67,-821.576 2257.69,-810.536 2392,-792 2463.58,-782.122 2982.87,-720.771 3030,-666 3050.87,-641.751 3053,-410.991 3053,-379 3053,-379 3053,-379 3053,-107 3053,-42.1744 978.986,-23.0547 519.446,-19.614"/>
<polygon fill="black" stroke="black" points="519.242,-16.1125 509.216,-19.538 519.189,-23.1123 519.242,-16.1125"/>
<text text-anchor="middle" x="3065.25" y="-418.8" font-family="Times,serif" font-size="14.00">0.19</text>
</g>
<!-- 9&#45;&gt;1 -->
<g id="edge292" class="edge"><title>9-&gt;1</title>
<path fill="none" stroke="black" stroke-width="1.8" d="M2032.97,-825.574C2093.24,-822.068 2237.02,-811.831 2281,-792 2303.11,-782.033 2305.63,-773.895 2322,-756 2363.8,-710.293 2631.77,-364.878 2651,-306 2660.93,-275.581 2659.54,-264.839 2651,-234 2638.55,-189.045 2637.28,-167.531 2597,-144 2565.14,-125.385 1969.61,-130.654 1933,-126 1919.92,-124.338 1905.77,-121.38 1893.38,-118.393"/>
<polygon fill="black" stroke="black" points="1894,-114.939 1883.45,-115.904 1892.3,-121.729 1894,-114.939"/>
<text text-anchor="middle" x="2570.25" y="-463.8" font-family="Times,serif" font-size="14.00">0.18</text>
</g>
<!-- 9&#45;&gt;0 -->
<g id="edge294" class="edge"><title>9-&gt;0</title>
<path fill="none" stroke="black" stroke-width="0.4" d="M2031.56,-821.545C2080.9,-809.541 2188.72,-775.819 2238,-702 2344.66,-542.245 2290.47,-450.585 2225,-270 2219.03,-253.539 2220.82,-246.919 2209,-234 2200.57,-224.789 2189.15,-217.442 2178.34,-211.904"/>
<polygon fill="black" stroke="black" points="2179.62,-208.639 2169.09,-207.502 2176.61,-214.96 2179.62,-208.639"/>
<text text-anchor="middle" x="2311.25" y="-508.8" font-family="Times,serif" font-size="14.00">0.04</text>
</g>
<!-- 9&#45;&gt;3 -->
<g id="edge296" class="edge"><title>9-&gt;3</title>
<path fill="none" stroke="black" stroke-width="1.8" d="M2026.54,-815.932C2036.58,-809.818 2048.33,-801.532 2057,-792 2090.37,-755.322 2089.97,-733.337 2085,-684 2082.54,-659.631 2080.91,-653.499 2074,-630 2061.9,-588.824 2057.32,-578.81 2039,-540 2029.21,-519.262 1957.41,-372.211 1938,-360 1911.33,-343.224 1686.31,-345.548 1655,-342 1605.78,-336.421 1594.23,-329.541 1545,-324 1416.67,-309.555 1383.12,-322.147 1255,-306 1237.2,-303.757 1217.6,-300.14 1201.34,-296.817"/>
<polygon fill="black" stroke="black" points="1201.69,-293.315 1191.18,-294.694 1200.26,-300.167 1201.69,-293.315"/>
<text text-anchor="middle" x="2068.25" y="-553.8" font-family="Times,serif" font-size="14.00">0.18</text>
</g>
<!-- 9&#45;&gt;2 -->
<g id="edge298" class="edge"><title>9-&gt;2</title>
<path fill="none" stroke="black" stroke-width="0.7" d="M1980.23,-821.882C1959.05,-817.903 1928.2,-812.632 1901,-810 1655.35,-786.229 1591.28,-819.292 1346,-792 1261.45,-782.592 1235.63,-790.8 1158,-756 1133.99,-745.237 1135.47,-729.671 1111,-720 1073.41,-705.143 961.58,-727.23 930,-702 838.492,-628.892 839.778,-469.629 844.344,-406.027"/>
<polygon fill="black" stroke="black" points="847.839,-406.233 845.152,-395.984 840.861,-405.671 847.839,-406.233"/>
<text text-anchor="middle" x="880.25" y="-598.8" font-family="Times,serif" font-size="14.00">0.07</text>
</g>
<!-- 9&#45;&gt;5 -->
<g id="edge300" class="edge"><title>9-&gt;5</title>
<path fill="none" stroke="black" stroke-width="0.1" d="M1990.53,-812.873C1939.57,-767.019 1770.83,-620.659 1607,-540 1582.02,-527.702 1573.2,-531.411 1547,-522 1514.07,-510.174 1477.28,-494.391 1452,-483.131"/>
<polygon fill="black" stroke="black" points="1453.13,-479.803 1442.57,-478.906 1450.27,-486.191 1453.13,-479.803"/>
<text text-anchor="middle" x="1820.25" y="-643.8" font-family="Times,serif" font-size="14.00">0.01</text>
</g>
<!-- 9&#45;&gt;4 -->
<g id="edge302" class="edge"><title>9-&gt;4</title>
<path fill="none" stroke="black" stroke-width="0.2" d="M2006.39,-809.806C2006.52,-799.431 2006.53,-785.95 2006,-774 2003.08,-708.095 2008.2,-683.783 1970,-630 1957.26,-612.058 1954.96,-605.181 1936,-594 1905.33,-575.908 1865.38,-567.067 1836.73,-562.811"/>
<polygon fill="black" stroke="black" points="1837.11,-559.329 1826.73,-561.441 1836.16,-566.265 1837.11,-559.329"/>
<text text-anchor="middle" x="2014.25" y="-688.8" font-family="Times,serif" font-size="14.00">0.02</text>
</g>
<!-- 9&#45;&gt;7 -->
<g id="edge304" class="edge"><title>9-&gt;7</title>
<path fill="none" stroke="black" stroke-width="0.1" d="M1980.2,-822.152C1959,-818.33 1928.15,-813.138 1901,-810 1799.09,-798.219 1531.8,-806.514 1442.5,-756 1424,-745.532 1429.19,-730.999 1411,-720 1381.66,-702.265 1367.53,-715.458 1336,-702 1322.39,-696.192 1320.88,-691.282 1308,-684 1295.13,-676.723 1280.54,-669.381 1267.95,-663.314"/>
<polygon fill="black" stroke="black" points="1269.3,-660.082 1258.77,-658.945 1266.29,-666.403 1269.3,-660.082"/>
<text text-anchor="middle" x="1455.25" y="-733.8" font-family="Times,serif" font-size="14.00">0.01</text>
</g>
<!-- 9&#45;&gt;6 -->
<g id="edge306" class="edge"><title>9-&gt;6</title>
<path fill="none" stroke="black" stroke-width="0.7" d="M1982.75,-818.505C1973.06,-815.311 1961.61,-811.976 1951,-810 1836.04,-788.59 1802.56,-817.815 1688.5,-792 1667.29,-787.199 1663.7,-780.652 1643,-774 1607.84,-762.705 1566.76,-752.814 1538.23,-746.454"/>
<polygon fill="black" stroke="black" points="1538.84,-743.004 1528.32,-744.275 1537.33,-749.841 1538.84,-743.004"/>
<text text-anchor="middle" x="1701.25" y="-778.8" font-family="Times,serif" font-size="14.00">0.07</text>
</g>
<!-- 9&#45;&gt;9 -->
<g id="edge308" class="edge"><title>9-&gt;9</title>
<path fill="none" stroke="black" d="M2030.53,-836.121C2041.51,-836.895 2051,-834.188 2051,-828 2051,-823.843 2046.72,-821.257 2040.57,-820.242"/>
<polygon fill="black" stroke="black" points="2040.65,-816.742 2030.53,-819.879 2040.4,-823.738 2040.65,-816.742"/>
<text text-anchor="middle" x="2059.75" y="-823.8" font-family="Times,serif" font-size="14.00">0.1</text>
</g>
<!-- 9&#45;&gt;8 -->
<g id="edge310" class="edge"><title>9-&gt;8</title>
<path fill="none" stroke="black" stroke-width="0.1" d="M1980.48,-834.654C1928.91,-845.823 1808.5,-870.615 1706,-882 1534.43,-901.056 1490.4,-891.117 1318,-900 1223.29,-904.88 1111.82,-911.401 1055.14,-914.773"/>
<polygon fill="black" stroke="black" points="1054.66,-911.295 1044.89,-915.384 1055.08,-918.283 1054.66,-911.295"/>
<text text-anchor="middle" x="1834.25" y="-868.8" font-family="Times,serif" font-size="14.00">0.01</text>
</g>
<!-- 8&#45;&gt;11 -->
<g id="edge312" class="edge"><title>8-&gt;11</title>
<path fill="none" stroke="black" stroke-width="0.2" d="M1029.31,-934.897C1052.12,-965.556 1106.96,-1032.43 1171,-1062 1218.14,-1083.76 1369.5,-1092.63 1440.53,-1095.65"/>
<polygon fill="black" stroke="black" points="1440.68,-1099.16 1450.81,-1096.07 1440.97,-1092.17 1440.68,-1099.16"/>
<text text-anchor="middle" x="1125.25" y="-1003.8" font-family="Times,serif" font-size="14.00">0.02</text>
</g>
<!-- 8&#45;&gt;10 -->
<g id="edge314" class="edge"><title>8-&gt;10</title>
<path fill="none" stroke="black" stroke-width="0.1" d="M1045.04,-919.894C1111.04,-922.415 1278.6,-930.96 1329,-954 1339.73,-958.903 1337.92,-966.791 1348.5,-972 1402.57,-998.619 1473.32,-1005.39 1515.85,-1006.89"/>
<polygon fill="black" stroke="black" points="1515.93,-1010.4 1526.03,-1007.17 1516.12,-1003.4 1515.93,-1010.4"/>
<text text-anchor="middle" x="1361.25" y="-958.8" font-family="Times,serif" font-size="14.00">0.01</text>
</g>
<!-- 8&#45;&gt;12 -->
<g id="edge316" class="edge"><title>8-&gt;12</title>
<path fill="none" stroke="black" stroke-width="0.1" d="M991.072,-916.25C834.571,-910.351 49,-859.07 49,-424 49,-424 49,-424 49,-107 49,-46.1053 236.106,-27.342 348.078,-21.5654"/>
<polygon fill="black" stroke="black" points="348.521,-25.048 358.337,-21.0615 348.177,-18.0564 348.521,-25.048"/>
<text text-anchor="middle" x="67.25" y="-463.8" font-family="Times,serif" font-size="14.00">0.01</text>
</g>
<!-- 8&#45;&gt;1 -->
<g id="edge318" class="edge"><title>8-&gt;1</title>
<path fill="none" stroke="black" stroke-width="0.6" d="M991.143,-914.987C943.651,-911.074 841.937,-901.098 758,-882 714.733,-872.156 396.369,-767.627 382,-756 358.469,-736.959 250.539,-551.183 242.5,-522 200.891,-370.948 220.821,-294.283 328,-180 358.603,-147.368 378.111,-152.671 422,-144 562.698,-116.204 1609.42,-110.106 1821.56,-109.151"/>
<polygon fill="black" stroke="black" points="1821.88,-112.649 1831.86,-109.105 1821.85,-105.649 1821.88,-112.649"/>
<text text-anchor="middle" x="255.25" y="-508.8" font-family="Times,serif" font-size="14.00">0.06</text>
</g>
<!-- 8&#45;&gt;0 -->
<g id="edge320" class="edge"><title>8-&gt;0</title>
<path fill="none" stroke="black" stroke-width="0.4" d="M1045.09,-915.308C1098.59,-912.009 1221.55,-904.637 1325,-900 1558.24,-889.545 1617.6,-904.327 1850,-882 1951.68,-872.231 1976.76,-865.639 2077,-846 2180.47,-825.729 2213.68,-839.122 2308,-792 2461.22,-715.452 2437.34,-576.427 2383,-414 2355.34,-331.316 2373.17,-288.357 2305,-234 2270.35,-206.372 2218.51,-199.457 2183.52,-198.247"/>
<polygon fill="black" stroke="black" points="2183.32,-194.742 2173.25,-198.038 2183.17,-201.741 2183.32,-194.742"/>
<text text-anchor="middle" x="2435.25" y="-553.8" font-family="Times,serif" font-size="14.00">0.04</text>
</g>
<!-- 8&#45;&gt;3 -->
<g id="edge322" class="edge"><title>8-&gt;3</title>
<path fill="none" stroke="black" stroke-width="2.4" d="M991.724,-913.538C959.011,-908.737 901.743,-898.706 855,-882 822.057,-870.226 814.063,-865.474 785,-846 713.325,-797.973 543.89,-653.514 506,-576 463.194,-488.428 403.297,-432.903 468,-360 490.187,-335.001 987.616,-300.665 1128.89,-291.39"/>
<polygon fill="black" stroke="black" points="1129.44,-294.862 1139.19,-290.717 1128.99,-287.877 1129.44,-294.862"/>
<text text-anchor="middle" x="541.25" y="-598.8" font-family="Times,serif" font-size="14.00">0.24</text>
</g>
<!-- 8&#45;&gt;2 -->
<g id="edge324" class="edge"><title>8-&gt;2</title>
<path fill="none" stroke="black" stroke-width="0.2" d="M992.554,-911.951C970.921,-906.831 939.69,-897.426 916,-882 861.181,-846.304 870.182,-810.655 816,-774 797.473,-761.466 781.677,-774.43 769,-756 690.837,-642.366 789.362,-466.974 830.517,-403.217"/>
<polygon fill="black" stroke="black" points="833.585,-404.922 836.145,-394.641 827.732,-401.082 833.585,-404.922"/>
<text text-anchor="middle" x="753.25" y="-643.8" font-family="Times,serif" font-size="14.00">0.02</text>
</g>
<!-- 8&#45;&gt;5 -->
<g id="edge326" class="edge"><title>8-&gt;5</title>
<path fill="none" stroke="black" stroke-width="0" d="M1007.23,-901.103C1003.61,-895.276 999.797,-888.511 997,-882 990.447,-866.742 989.547,-862.409 987,-846 975.956,-774.843 962.329,-750.686 989.5,-684 1009.31,-635.383 1023.26,-624.488 1066,-594 1083.87,-581.25 1091.6,-584.116 1112,-576 1191.29,-544.451 1209.07,-531.065 1290,-504 1321.93,-493.322 1359.07,-483.652 1385.63,-477.195"/>
<polygon fill="black" stroke="black" points="1386.71,-480.537 1395.61,-474.799 1385.07,-473.73 1386.71,-480.537"/>
<text text-anchor="middle" x="998.75" y="-688.8" font-family="Times,serif" font-size="14.00">0.0</text>
</g>
<!-- 8&#45;&gt;4 -->
<g id="edge328" class="edge"><title>8-&gt;4</title>
<path fill="none" stroke="black" stroke-width="1.3" d="M1044.54,-914.238C1093.57,-908.995 1201.61,-896.794 1292,-882 1312.13,-878.706 1453.58,-854.758 1472,-846 1473.77,-845.157 1579.51,-757.282 1581,-756 1653.69,-693.345 1737.49,-616.694 1777.05,-580.23"/>
<polygon fill="black" stroke="black" points="1779.82,-582.432 1784.8,-573.079 1775.08,-577.288 1779.82,-582.432"/>
<text text-anchor="middle" x="1635.25" y="-733.8" font-family="Times,serif" font-size="14.00">0.13</text>
</g>
<!-- 8&#45;&gt;7 -->
<g id="edge330" class="edge"><title>8-&gt;7</title>
<path fill="none" stroke="black" stroke-width="0" d="M1019.53,-899.784C1023.68,-856.783 1036.53,-746.245 1061,-720 1098.23,-680.069 1160.99,-662.085 1200.65,-654.365"/>
<polygon fill="black" stroke="black" points="1201.48,-657.771 1210.69,-652.533 1200.22,-650.885 1201.48,-657.771"/>
<text text-anchor="middle" x="1047.75" y="-778.8" font-family="Times,serif" font-size="14.00">0.0</text>
</g>
<!-- 8&#45;&gt;6 -->
<g id="edge332" class="edge"><title>8-&gt;6</title>
<path fill="none" stroke="black" stroke-width="0.1" d="M1038.37,-906.093C1089.43,-879.234 1227.66,-809.515 1351,-774 1398.6,-760.292 1413.3,-769.376 1461,-756 1464.44,-755.036 1467.97,-753.88 1471.47,-752.63"/>
<polygon fill="black" stroke="black" points="1473.01,-755.79 1481.09,-748.94 1470.5,-749.254 1473.01,-755.79"/>
<text text-anchor="middle" x="1259.25" y="-823.8" font-family="Times,serif" font-size="14.00">0.01</text>
</g>
<!-- 8&#45;&gt;9 -->
<g id="edge334" class="edge"><title>8-&gt;9</title>
<path fill="none" stroke="black" stroke-width="4.4" d="M1044.89,-915.463C1097.39,-912.465 1217.21,-905.638 1318,-900 1390.44,-895.948 1574.15,-901.64 1644,-882 1660.27,-877.425 1661.29,-868.78 1677.5,-864 1773.09,-835.818 1802.07,-857.973 1901,-846 1924.11,-843.204 1949.91,-839.04 1970.15,-835.534"/>
<polygon fill="black" stroke="black" points="1971.01,-839.293 1980.19,-833.771 1969.68,-831.709 1971.01,-839.293"/>
<text text-anchor="middle" x="1690.25" y="-868.8" font-family="Times,serif" font-size="14.00">0.44</text>
</g>
<!-- 8&#45;&gt;8 -->
<g id="edge336" class="edge"><title>8-&gt;8</title>
<path fill="none" stroke="black" stroke-width="0.1" d="M1042.53,-926.121C1053.51,-926.895 1063,-924.188 1063,-918 1063,-913.843 1058.72,-911.257 1052.57,-910.242"/>
<polygon fill="black" stroke="black" points="1052.65,-906.742 1042.53,-909.879 1052.4,-913.738 1052.65,-906.742"/>
<text text-anchor="middle" x="1075.25" y="-913.8" font-family="Times,serif" font-size="14.00">0.01</text>
</g>
</g>
</svg>